<?xml version="1.0" encoding="UTF-8"?>
<svg version="1.1" xmlns="http://www.w3.org/2000/svg" width="548" height="788">
<path d="M0 0 C6.51244139 5.40973717 9.2591316 13.43259517 10.75 21.5625 C11.05201911 25.25238368 11.09744553 28.93181972 11.12890625 32.6328125 C11.14590073 33.67267303 11.1628952 34.71253357 11.18040466 35.78390503 C11.23322001 39.08504268 11.27368635 42.38617046 11.3125 45.6875 C11.35657036 48.99590798 11.40336973 52.30422425 11.45530701 55.61251831 C11.48701759 57.66479539 11.51398191 59.71715291 11.53553772 61.76956177 C11.60338611 66.47082948 11.78614744 70.93892111 12.75 75.5625 C18.28285425 74.508623 20.12141454 72.13855137 23.23779297 67.81835938 C25.56114567 64.35246029 27.54123146 60.74322709 29.5 57.0625 C46.97605932 25.06192321 46.97605932 25.06192321 60.67578125 19.40625 C67.36150637 17.57128605 74.51502658 17.25681796 80.9921875 19.87109375 C85.68676225 22.75034427 87.9406305 26.60805305 89.38671875 31.88671875 C91.46849874 45.78763676 84.05569911 59.62742788 76.54296875 70.86328125 C72.8509888 75.84842406 68.89496005 80.60009738 64.9375 85.375 C58.98399614 92.17178605 58.98399614 92.17178605 56.75 100.5625 C67.29010998 101.76023977 76.66204823 95.15780933 85.45239258 90.08789062 C90.49261703 87.20399212 95.61962269 84.59424227 100.875 82.125 C101.57326904 81.7952417 102.27153809 81.4654834 102.9909668 81.12573242 C113.49774127 76.25835245 123.26077938 74.69689927 134.48828125 78.51171875 C139.56288049 80.86934776 143.67701844 84.28929344 145.75 89.5625 C146.85412963 96.13842248 146.32102163 101.4931168 142.875 107.25 C129.55626529 125.83739081 107.69678798 134.15425428 86.55859375 140.45703125 C83.46987372 141.36402483 83.46987372 141.36402483 81.75 144.5625 C83.33728542 146.4490019 84.26645944 147.45829298 86.71388245 147.98573303 C87.45871384 148.00856857 88.20354523 148.03140411 88.97094727 148.05493164 C89.81935684 148.08829117 90.66776642 148.1216507 91.54188538 148.15602112 C92.45747726 148.17801071 93.37306915 148.20000031 94.31640625 148.22265625 C95.73940285 148.2757621 95.73940285 148.2757621 97.19114685 148.3299408 C100.23130305 148.44185652 103.27162769 148.53480565 106.3125 148.625 C109.32822385 148.72086375 112.34361869 148.82105266 115.35887146 148.93077087 C117.2341214 148.99838618 119.10968585 149.05795416 120.98548889 149.10792542 C135.31418885 149.60516249 145.7038062 153.02524989 155.75 163.5625 C158.73120694 168.12747313 160.4672707 173.03882066 159.34765625 178.5390625 C157.35599181 184.6436908 154.06592452 189.83381897 148.27734375 192.8515625 C145.78776594 193.87085945 143.32124747 194.77330523 140.75 195.5625 C140.18200684 195.739021 139.61401367 195.91554199 139.02880859 196.09741211 C133.35454822 197.25548646 127.28384554 196.75581795 121.5 196.75 C120.41220245 196.75108765 120.41220245 196.75108765 119.3024292 196.75219727 C110.04175257 196.7511693 101.00650261 196.4408649 91.84375 195.01171875 C84.13203923 193.82776969 84.13203923 193.82776969 76.75 195.5625 C78.76122364 200.29990054 80.5646303 202.56596273 84.9375 205.25 C86.00355469 205.92546875 87.06960938 206.6009375 88.16796875 207.296875 C88.74466309 207.65845703 89.32135742 208.02003906 89.91552734 208.39257812 C100.16988299 214.93222042 110.22653878 222.00188957 119.75 229.5625 C120.46027344 230.1090625 121.17054688 230.655625 121.90234375 231.21875 C127.56094858 236.09974529 129.44697621 242.34443401 130.75 249.5625 C131.02774323 254.63131387 130.32697335 258.36417074 128.125 262.9375 C123.34453395 268.221173 118.54315784 270.23223286 111.546875 270.65625 C95.87143024 270.1308161 83.65043571 261.9653134 71.75 252.5625 C70.84121094 251.881875 69.93242187 251.20125 68.99609375 250.5 C68.17238281 249.88125 67.34867188 249.2625 66.5 248.625 C65.77296875 248.07972656 65.0459375 247.53445313 64.296875 246.97265625 C63.78640625 246.50730469 63.2759375 246.04195312 62.75 245.5625 C62.75 244.9025 62.75 244.2425 62.75 243.5625 C62.09 243.5625 61.43 243.5625 60.75 243.5625 C60.75 242.9025 60.75 242.2425 60.75 241.5625 C60.151875 241.294375 59.55375 241.02625 58.9375 240.75 C56.75 239.5625 56.75 239.5625 55.4375 238.0625 C52.89103713 235.79897745 50.00554744 235.3610305 46.75 234.5625 C46.28878291 241.81225616 47.5105197 246.26498092 50.75 252.6875 C54.38374215 260.29946306 57.49728503 267.96354741 60.25 275.9375 C60.58773437 276.90574707 60.92546875 277.87399414 61.2734375 278.87158203 C64.95545828 289.68751806 66.96123655 300.849505 61.75 311.5625 C58.12451793 315.79651453 54.55751169 318.32822064 48.89453125 318.80078125 C40.67378732 318.98389278 35.32288686 318.4240489 28.9921875 313.078125 C17.44951021 301.38016505 13.2355474 283.76520646 8.34277344 268.57446289 C8.11168381 267.85774414 7.88059418 267.14102539 7.64250183 266.40258789 C7.20358385 265.03561219 6.76800284 263.66755951 6.33613586 262.29833984 C5.50274853 259.1778115 5.50274853 259.1778115 3.75 256.5625 C3.74413376 257.27358414 3.73826752 257.98466827 3.73222351 258.71730042 C3.6741584 265.44060983 3.60200343 272.16360617 3.51428509 278.88659763 C3.46968504 282.34242452 3.43040688 285.79813634 3.40356445 289.25415039 C3.37241864 293.23348813 3.31763342 297.21233649 3.26171875 301.19140625 C3.25532883 302.42395645 3.2489389 303.65650665 3.24235535 304.92640686 C3.11296671 312.51339954 2.6936822 317.97488732 -2.25 324 C-6.84472109 326.3930839 -11.18283075 326.43877739 -16.25 325.5625 C-20.53679006 322.58799261 -22.09187167 319.5810561 -23.25 314.5625 C-24.22740336 307.44620928 -24.38160786 300.48523601 -24.34765625 293.30859375 C-24.34553383 291.59640404 -24.34553383 291.59640404 -24.34336853 289.84962463 C-24.33780751 286.23305551 -24.32526231 282.61655016 -24.3125 279 C-24.30747996 276.53580819 -24.30291794 274.0716154 -24.29882812 271.60742188 C-24.28785087 265.59242646 -24.27115194 259.57746779 -24.25 253.5625 C-26.60486157 254.45023961 -26.60486157 254.45023961 -27.31567383 257.59082031 C-27.70378651 258.93857283 -28.08362261 260.28872475 -28.45703125 261.640625 C-28.66430344 262.36304382 -28.87157562 263.08546265 -29.08512878 263.82977295 C-29.75172993 266.15529359 -30.40804968 268.483533 -31.0625 270.8125 C-41.37601946 307.40158598 -41.37601946 307.40158598 -52.25 314.5625 C-53.19875 315.305 -54.1475 316.0475 -55.125 316.8125 C-60.92995043 319.99503861 -67.89370014 319.4280387 -74.25 318.5625 C-79.82351382 316.56973528 -83.30532097 313.12156995 -86.375 308.125 C-91.14561966 297.1854756 -86.92701472 282.90191099 -83.0234375 272.19970703 C-81.63795913 268.71968226 -80.20680979 265.26324574 -78.75 261.8125 C-77.78032306 259.48476092 -76.81154949 257.15664529 -75.84375 254.828125 C-75.16856323 253.20487305 -75.16856323 253.20487305 -74.47973633 251.54882812 C-71.01407337 243.83287321 -71.01407337 243.83287321 -70.25 235.5625 C-75.15345797 235.98849358 -77.9169546 238.45850826 -81.4375 241.625 C-82.59161105 242.63116905 -83.74656701 243.63636975 -84.90234375 244.640625 C-85.46937012 245.13755859 -86.03639648 245.63449219 -86.62060547 246.14648438 C-100.03821754 257.80698034 -116.01216451 270.38438912 -134.66015625 269.8671875 C-140.06091739 269.23180384 -145.06410693 267.78348768 -148.953125 263.83203125 C-152.18628604 259.17739423 -153.73388825 254.23367031 -153.25 248.5625 C-148.62363862 231.82763723 -132.64731116 221.07835857 -118.98046875 212.0859375 C-118.03969482 211.46541504 -117.0989209 210.84489258 -116.12963867 210.20556641 C-114.23229957 208.95826099 -112.33020442 207.71815588 -110.4230957 206.48583984 C-109.54097412 205.90785645 -108.65885254 205.32987305 -107.75 204.734375 C-106.9559375 204.2197168 -106.161875 203.70505859 -105.34375 203.17480469 C-103.11863052 201.46133814 -101.68405941 199.97672983 -100.25 197.5625 C-100.25 196.2425 -100.25 194.9225 -100.25 193.5625 C-107.73070379 193.14432401 -114.76430964 193.87390603 -122.125 195.0625 C-138.73541378 197.64650917 -159.05095577 199.96090608 -173.6328125 189.88671875 C-177.72728352 186.53399973 -180.8779104 182.34884536 -181.5859375 177.046875 C-181.67672527 170.69173092 -181.23854012 165.68901343 -177.25 160.5625 C-164.36682085 147.76837508 -145.20019044 148.2101649 -128.3125 147.5 C-125.64555347 147.38410866 -122.97875533 147.26602176 -120.31211853 147.14320374 C-118.66400509 147.06763854 -117.0156965 146.99618428 -115.36720276 146.9294281 C-111.86216745 146.77176986 -108.63070061 146.49171385 -105.25 145.5625 C-105.25 144.2425 -105.25 142.9225 -105.25 141.5625 C-106.01965088 141.24087891 -106.78930176 140.91925781 -107.58227539 140.58789062 C-154.87327546 120.75926047 -154.87327546 120.75926047 -165.3828125 103.7265625 C-167.3643142 98.78173392 -167.17969945 92.39180157 -165.52734375 87.36328125 C-162.93077291 82.51704984 -159.43791556 79.29180519 -154.25 77.5625 C-133.19845106 75.76649373 -115.24837724 84.76701335 -97.25 94.5625 C-91.53440703 97.66416178 -86.79968794 100.13534644 -80.25 100.5625 C-81.79914667 91.76414135 -86.46914341 85.96323694 -91.92138672 79.23144531 C-102.45557692 65.99886093 -111.92884485 51.12300134 -111.62890625 33.7265625 C-110.8918401 27.57168024 -108.02277023 24.13381906 -103.5 20.125 C-97.29032181 17.13957779 -91.13821645 16.9726162 -84.50390625 18.71484375 C-71.0671447 23.76818388 -63.34303773 35.85710585 -56.25 47.5625 C-55.41275391 48.91794922 -55.41275391 48.91794922 -54.55859375 50.30078125 C-51.40357205 55.46579066 -48.51763453 60.73877884 -45.7421875 66.1171875 C-43.50717675 69.77979674 -41.72781772 72.1594588 -37.5 73.3125 C-36.7575 73.395 -36.015 73.4775 -35.25 73.5625 C-35.12759961 64.83127226 -35.31801042 56.15847588 -35.75 47.4375 C-37.23565572 16.48897331 -37.23565572 16.48897331 -29.25 6.5625 C-21.17846811 -2.0621133 -10.85171929 -7.18008494 0 0 Z " fill="#F0D026" transform="translate(291.25,266.4375)"/>
<path d="M0 0 C3.8278848 2.98966185 6.11984048 7.08783451 8.375 11.3125 C15.57361067 24.74990658 26.00660047 33.35073885 40 39 C41.03898437 39.5259375 42.07796875 40.051875 43.1484375 40.59375 C47.91036729 42.64106205 52.82362891 42.56515859 57.9375 42.6875 C59.3925293 42.73874023 59.3925293 42.73874023 60.87695312 42.79101562 C63.25118637 42.87288574 65.62507877 42.94223078 68 43 C68 42.34 68 41.68 68 41 C68.79921875 40.85304688 69.5984375 40.70609375 70.421875 40.5546875 C81.52778185 38.28657976 92.72448996 34.094129 101 26 C101.495 24.515 101.495 24.515 102 23 C102.75023437 22.25878906 103.50046875 21.51757812 104.2734375 20.75390625 C107.29045997 17.7066271 109.39143725 14.56896496 111.625 10.9375 C117.27370644 1.88239457 117.27370644 1.88239457 119 0 C123.97659534 -0.722409 125.87226284 -0.79881382 130 2.125 C132.39615948 5.56947926 132.37785514 6.88389806 132 11 C126.90836525 24.75667135 115.20110572 38.04945999 103 46 C102.22398437 46.51691406 101.44796875 47.03382813 100.6484375 47.56640625 C88.38883363 55.33082204 76.09939087 59.40451676 61.625 59.25 C60.69816406 59.24250732 59.77132812 59.23501465 58.81640625 59.22729492 C43.27657604 58.98277755 29.99178437 54.6309057 17 46 C16.28328125 45.53078125 15.5665625 45.0615625 14.828125 44.578125 C13.17166075 43.45172931 11.57749676 42.23456268 10 41 C10 40.34 10 39.68 10 39 C9.43796875 38.76796875 8.8759375 38.5359375 8.296875 38.296875 C-0.95426399 33.07344278 -7.82826556 21.54663758 -12 12 C-12.87032226 8.37111245 -12.7974263 6.74176957 -12 3 C-8.51278835 -0.48721165 -4.74918958 -0.83319115 0 0 Z " fill="#193961" transform="translate(220,427)"/>
<path d="M0 0 C0.69101807 0.72207642 0.69101807 0.72207642 1.39599609 1.45874023 C5.33880783 3.79241457 9.1555969 3.55126346 13.6640625 3.66015625 C15.08493668 3.7132621 15.08493668 3.7132621 16.53451538 3.7674408 C19.56438404 3.87918357 22.59442127 3.97223256 25.625 4.0625 C28.63400441 4.15838816 31.64268131 4.25855857 34.6512146 4.36827087 C36.52090049 4.43585333 38.39090015 4.49542839 40.26113892 4.54542542 C49.7355413 4.87543145 57.6766527 6.37591817 66 11 C66 11.99 66 12.98 66 14 C64.02 14 62.04 14 60 14 C60 13.34 60 12.68 60 12 C59.21625 12.04125 58.4325 12.0825 57.625 12.125 C54.69362755 12.02391819 52.5725953 11.70283502 49.77734375 11.02734375 C42.56642786 9.54196882 35.26944439 9.57276333 27.9375 9.4375 C4.41833589 8.94555726 4.41833589 8.94555726 0 6 C-0.1875 2.875 -0.1875 2.875 0 0 Z " fill="#CCB535" transform="translate(372,411)"/>
<path d="M0 0 C2.84725492 7.79634608 5.29888039 14.77478509 3 23 C0.55889314 28.06999117 -2.74430395 31.03922109 -8 33 C-15.99983345 35.05629522 -23.20120254 33.16361622 -31 31 C-31 30.67 -31 30.34 -31 30 C-27.535 29.505 -27.535 29.505 -24 29 C-24 28.34 -24 27.68 -24 27 C-23.34 27 -22.68 27 -22 27 C-22 27.66 -22 28.32 -22 29 C-20.02 29 -18.04 29 -16 29 C-16 29.66 -16 30.32 -16 31 C-13.36 31 -10.72 31 -8 31 C-8 30.34 -8 29.68 -8 29 C-5 27 -5 27 -2 27 C-2 24.36 -2 21.72 -2 19 C-1.34 19 -0.68 19 0 19 C0 15.04 0 11.08 0 7 C-1.32 7 -2.64 7 -4 7 C-4 5.68 -4 4.36 -4 3 C-4.66 2.67 -5.32 2.34 -6 2 C-3 0 -3 0 0 0 Z " fill="#E2C736" transform="translate(418,503)"/>
<path d="M0 0 C2.475 0.495 2.475 0.495 5 1 C5 1.66 5 2.32 5 3 C6.32 3 7.64 3 9 3 C9 3.66 9 4.32 9 5 C10.98 5 12.96 5 15 5 C15 4.34 15 3.68 15 3 C15.99 3.33 16.98 3.66 18 4 C18.33 4.99 18.66 5.98 19 7 C19.78246094 6.98839844 20.56492188 6.97679687 21.37109375 6.96484375 C22.38300781 6.95582031 23.39492187 6.94679688 24.4375 6.9375 C25.44683594 6.92589844 26.45617187 6.91429687 27.49609375 6.90234375 C30 7 30 7 31 8 C32.77690109 8.22789426 34.56169968 8.39489788 36.34765625 8.53515625 C37.42724609 8.62216797 38.50683594 8.70917969 39.61914062 8.79882812 C41.32360352 8.9293457 41.32360352 8.9293457 43.0625 9.0625 C44.77276367 9.19881836 44.77276367 9.19881836 46.51757812 9.33789062 C49.34475741 9.56264546 52.17220464 9.78315711 55 10 C55 10.33 55 10.66 55 11 C38.53664011 12.91486198 18.90799395 15.11814034 4.55859375 5.2734375 C2.66546122 3.72666756 1.24694324 2.10421671 0 0 Z " fill="#DAC139" transform="translate(113,451)"/>
<path d="M0 0 C0.33 1.32 0.66 2.64 1 4 C-0.32 4 -1.64 4 -3 4 C-3 4.66 -3 5.32 -3 6 C-4.32 6 -5.64 6 -7 6 C-7 6.66 -7 7.32 -7 8 C-5.68 8 -4.36 8 -3 8 C-3 8.66 -3 9.32 -3 10 C-3.66 10 -4.32 10 -5 10 C-4.67 10.99 -4.34 11.98 -4 13 C-6.64458379 14.32229189 -8.67761301 14.09677194 -11.625 14.0625 C-12.62789063 14.05347656 -13.63078125 14.04445313 -14.6640625 14.03515625 C-15.43492187 14.02355469 -16.20578125 14.01195312 -17 14 C-17 14.66 -17 15.32 -17 16 C-17.99 15.67 -18.98 15.34 -20 15 C-20 14.67 -20 14.34 -20 14 C-22.31 14.33 -24.62 14.66 -27 15 C-22.58966226 11.02525117 -17.72041812 8.80473551 -12.375 6.375 C-10.67351663 5.59323737 -8.97295513 4.8094644 -7.2734375 4.0234375 C-6.15074463 3.51176025 -6.15074463 3.51176025 -5.00537109 2.98974609 C-2.77125382 1.94079078 -2.77125382 1.94079078 0 0 Z " fill="#F1D02C" transform="translate(397,346)"/>
<path d="M0 0 C7.14514693 -0.60552093 7.14514693 -0.60552093 11 2.125 C13.38048785 5.54695128 13.66654852 6.91739029 13 11 C11.5 14.375 11.5 14.375 10 17 C9.67 17 9.34 17 9 17 C9 14.36 9 11.72 9 9 C8.34 9 7.68 9 7 9 C7 10.32 7 11.64 7 13 C5.68 13 4.36 13 3 13 C3 10.36 3 7.72 3 5 C3.66 5 4.32 5 5 5 C5 4.34 5 3.68 5 3 C3.02 3.99 3.02 3.99 1 5 C1 4.34 1 3.68 1 3 C0.34 3 -0.32 3 -1 3 C-0.67 2.01 -0.34 1.02 0 0 Z " fill="#243F5A" transform="translate(339,427)"/>
<path d="M0 0 C2 2 2 2 2.23046875 4.3125 C2.21628906 5.199375 2.20210937 6.08625 2.1875 7 C2.18105469 7.886875 2.17460937 8.77375 2.16796875 9.6875 C2 12 2 12 1 14 C0.78308608 15.37206521 0.61076837 16.75139272 0.46484375 18.1328125 C0.37783203 18.93847656 0.29082031 19.74414062 0.20117188 20.57421875 C0.11416016 21.41597656 0.02714844 22.25773438 -0.0625 23.125 C-0.15337891 23.97449219 -0.24425781 24.82398438 -0.33789062 25.69921875 C-0.5620368 27.7991145 -0.78146448 29.89951293 -1 32 C-3.00390625 30.93359375 -3.00390625 30.93359375 -5 29 C-5.27734375 25.84765625 -5.27734375 25.84765625 -4.9375 22.0625 C-4.87949219 21.40096924 -4.82148438 20.73943848 -4.76171875 20.05786133 C-4.0893827 13.32399554 -3.04830418 6.09660837 0 0 Z " fill="#D9BF38" transform="translate(208,540)"/>
<path d="M0 0 C0.66 0 1.32 0 2 0 C3.11328125 1.48120117 3.11328125 1.48120117 4.3125 3.54296875 C4.96605469 4.65961914 4.96605469 4.65961914 5.6328125 5.79882812 C6.30957031 6.9812207 6.30957031 6.9812207 7 8.1875 C7.45117188 8.95642578 7.90234375 9.72535156 8.3671875 10.51757812 C10.53907395 14.26054812 12.55507137 17.90329894 14 22 C13.01 22 12.02 22 11 22 C10.34 20.35 9.68 18.7 9 17 C7.35 17.66 5.7 18.32 4 19 C3.67 17.02 3.34 15.04 3 13 C3.66 13 4.32 13 5 13 C5 11.68 5 10.36 5 9 C3.68 9 2.36 9 1 9 C1 9.66 1 10.32 1 11 C0.34 11 -0.32 11 -1 11 C-1 10.34 -1 9.68 -1 9 C-1.66 9 -2.32 9 -3 9 C-2.44271087 5.65626525 -1.64826111 2.96687001 0 0 Z " fill="#EBCE2B" transform="translate(229,307)"/>
<path d="M0 0 C0.99 0.33 1.98 0.66 3 1 C2.34 4.3 1.68 7.6 1 11 C1.66 11 2.32 11 3 11 C3 11.66 3 12.32 3 13 C2.34 13 1.68 13 1 13 C1 13.66 1 14.32 1 15 C0.34 15 -0.32 15 -1 15 C-2.73662334 18.22515763 -3.8905928 21.51329166 -5 25 C-5.66 25 -6.32 25 -7 25 C-8.9221578 18.86117143 -6.58745423 14.66737888 -4.0625 9.125 C-3.67642578 8.24585938 -3.29035156 7.36671875 -2.89257812 6.4609375 C-1.94171012 4.30094104 -0.97736521 2.14810434 0 0 Z " fill="#ECCE34" transform="translate(219,513)"/>
<path d="M0 0 C0.66 0.33 1.32 0.66 2 1 C0.74305145 10.06912245 -7.08573432 16.62061359 -14 22 C-17.33576539 24.32727818 -19.97271803 25.424674 -24 26 C-24 25.34 -24 24.68 -24 24 C-23.34 24 -22.68 24 -22 24 C-22 23.34 -22 22.68 -22 22 C-21.34 22 -20.68 22 -20 22 C-20 21.34 -20 20.68 -20 20 C-18.02 20 -16.04 20 -14 20 C-14 19.34 -14 18.68 -14 18 C-13.34 18 -12.68 18 -12 18 C-12 16.68 -12 15.36 -12 14 C-10.68 14 -9.36 14 -8 14 C-7.938125 13.278125 -7.87625 12.55625 -7.8125 11.8125 C-6.7446249 8.11600926 -4.89180184 6.46861132 -2 4 C-1.34 4 -0.68 4 0 4 C0 2.68 0 1.36 0 0 Z " fill="#ECD33B" transform="translate(434,366)"/>
<path d="M0 0 C4.48404564 -0.024759 8.96805481 -0.04288799 13.45214844 -0.05493164 C14.97689507 -0.05995365 16.50163691 -0.0667725 18.02636719 -0.07543945 C20.22071519 -0.08759849 22.4149994 -0.09324968 24.609375 -0.09765625 C26.5888916 -0.10551147 26.5888916 -0.10551147 28.60839844 -0.11352539 C31.30948418 -0.02311329 33.4500616 0.18118645 36 1 C36 1.66 36 2.32 36 3 C28.48488329 5.58947842 21.85529679 4.71635636 14.0625 3.75 C12.81919922 3.61464844 11.57589844 3.47929687 10.29492188 3.33984375 C3.53076219 2.54841118 3.53076219 2.54841118 1 2 C0.67 1.34 0.34 0.68 0 0 Z " fill="#CFB938" transform="translate(368,458)"/>
<path d="M0 0 C1.94816625 1.46718027 3.81623383 2.97168305 5.63671875 4.59375 C3.65671875 5.58375 3.65671875 5.58375 1.63671875 6.59375 C1.30671875 5.60375 0.97671875 4.61375 0.63671875 3.59375 C-2.48113238 4.24019661 -2.48113238 4.24019661 -3.36328125 6.59375 C-4.68328125 6.59375 -6.00328125 6.59375 -7.36328125 6.59375 C-7.36328125 5.27375 -7.36328125 3.95375 -7.36328125 2.59375 C-8.94109375 2.6246875 -8.94109375 2.6246875 -10.55078125 2.65625 C-13.69033029 2.60478198 -16.33211521 2.32857813 -19.36328125 1.59375 C-13.61094427 -3.13138395 -6.54445443 -3.89422082 0 0 Z " fill="#DAC136" transform="translate(289.36328125,265.40625)"/>
<path d="M0 0 C0.99 0.33 1.98 0.66 3 1 C0.03 10.57 -2.94 20.14 -6 30 C-6.33 30 -6.66 30 -7 30 C-7 28.35 -7 26.7 -7 25 C-7.33 25.33 -7.66 25.66 -8 26 C-8.66 25.01 -9.32 24.02 -10 23 C-9.3203125 20.73828125 -9.3203125 20.73828125 -8.125 18.3125 C-7.73570312 17.50425781 -7.34640625 16.69601562 -6.9453125 15.86328125 C-6.47738281 14.94095703 -6.47738281 14.94095703 -6 14 C-5.34 14 -4.68 14 -4 14 C-3.8453125 12.4840625 -3.8453125 12.4840625 -3.6875 10.9375 C-2.96295233 6.78781792 -1.77730734 3.78643737 0 0 Z " fill="#C6B136" transform="translate(258,534)"/>
<path d="M0 0 C0.66 0.33 1.32 0.66 2 1 C2.41064453 3.04125977 2.41064453 3.04125977 2.6328125 5.69140625 C2.71660156 6.63564453 2.80039063 7.57988281 2.88671875 8.55273438 C2.96535156 9.54595703 3.04398438 10.53917969 3.125 11.5625 C3.25455078 13.05813477 3.25455078 13.05813477 3.38671875 14.58398438 C3.59956793 17.05539988 3.80359321 19.52723225 4 22 C4.99 22.33 5.98 22.66 7 23 C7 23.99 7 24.98 7 26 C3.26477691 25.06619423 2.06727423 24.0915677 -0.25 20.9375 C-2.7276314 16.06313944 -3.78800764 11.00240884 -2.3828125 5.6484375 C-1.67197695 3.73256645 -0.84560194 1.86032428 0 0 Z " fill="#E3C82C" transform="translate(141,507)"/>
<path d="M0 0 C3.56369324 1.29874032 6.4320671 2.84034997 9.5 5.0625 C13.68391812 8.05823593 17.89003976 11.01465847 22.125 13.9375 C23.25265335 14.7173768 24.38026166 15.49731874 25.5078125 16.27734375 C26.33023437 16.84582031 27.15265625 17.41429687 28 18 C27.01 18.66 26.02 19.32 25 20 C24.34 19.67 23.68 19.34 23 19 C23 18.34 23 17.68 23 17 C22.34 17 21.68 17 21 17 C20.67 16.34 20.34 15.68 20 15 C18.35636866 14.27840576 16.68949614 13.60648579 15 13 C15 12.34 15 11.68 15 11 C13.576875 11.0928125 13.576875 11.0928125 12.125 11.1875 C11.09375 11.125625 10.0625 11.06375 9 11 C8.34 10.01 7.68 9.02 7 8 C6.154375 7.67 5.30875 7.34 4.4375 7 C3.633125 6.67 2.82875 6.34 2 6 C1.67 5.01 1.34 4.02 1 3 C0.34 3 -0.32 3 -1 3 C-0.67 2.01 -0.34 1.02 0 0 Z " fill="#E2CB39" transform="translate(371,469)"/>
<path d="M0 0 C2.40482382 3.00602978 4.79825167 5.99874499 7.125 9.0625 C7.62257812 9.71347656 8.12015625 10.36445313 8.6328125 11.03515625 C9.97080707 12.95804559 11.0088597 14.88084764 12 17 C10 17.66666667 8 18.33333333 6 19 C6 18.34 6 17.68 6 17 C5.34 17 4.68 17 4 17 C4 15.68 4 14.36 4 13 C3.34 13 2.68 13 2 13 C2 13.66 2 14.32 2 15 C1.34 15 0.68 15 0 15 C0 10.05 0 5.1 0 0 Z " fill="#E8CD2E" transform="translate(210,443)"/>
<path d="M0 0 C1.32 0.33 2.64 0.66 4 1 C4 1.66 4 2.32 4 3 C2.34516392 4.49877503 0.62409488 5.92488473 -1.125 7.3125 C-2.12660156 8.11171875 -3.12820312 8.9109375 -4.16015625 9.734375 C-5.09730469 10.48203125 -6.03445312 11.2296875 -7 12 C-8.19127262 13.0164283 -9.37979626 14.03611371 -10.5625 15.0625 C-13 17 -13 17 -15 17 C-15 15.68 -15 14.36 -15 13 C-14.34 13 -13.68 13 -13 13 C-13 11.68 -13 10.36 -13 9 C-12.34 9 -11.68 9 -11 9 C-11 8.34 -11 7.68 -11 7 C-9.68 7 -8.36 7 -7 7 C-7 5.68 -7 4.36 -7 3 C-6.34 3 -5.68 3 -5 3 C-5 3.66 -5 4.32 -5 5 C-3.68 4.67 -2.36 4.34 -1 4 C-0.67 2.68 -0.34 1.36 0 0 Z " fill="#E5CC3A" transform="translate(211,501)"/>
<path d="M0 0 C1.134375 0.020625 2.26875 0.04125 3.4375 0.0625 C3.4375 0.7225 3.4375 1.3825 3.4375 2.0625 C2.7775 2.0625 2.1175 2.0625 1.4375 2.0625 C0.7775 4.0425 0.1175 6.0225 -0.5625 8.0625 C-0.005625 8.18625 0.55125 8.31 1.125 8.4375 C3.65864364 9.12226855 6.01671032 10.05383763 8.4375 11.0625 C8.7675 10.4025 9.0975 9.7425 9.4375 9.0625 C10.0975 9.7225 10.7575 10.3825 11.4375 11.0625 C11.0625 13.6875 11.0625 13.6875 10.4375 16.0625 C3.17430288 12.35623306 -3.29850373 8.29023022 -9.5625 3.0625 C-8.2425 2.7325 -6.9225 2.4025 -5.5625 2.0625 C-5.5625 2.7225 -5.5625 3.3825 -5.5625 4.0625 C-4.5725 4.0625 -3.5825 4.0625 -2.5625 4.0625 C-2.5625 3.4025 -2.5625 2.7425 -2.5625 2.0625 C-3.2225 1.7325 -3.8825 1.4025 -4.5625 1.0625 C-3.5625 0.0625 -3.5625 0.0625 0 0 Z " fill="#F0D334" transform="translate(372.5625,515.9375)"/>
<path d="M0 0 C1.32 0 2.64 0 4 0 C4.33 1.32 4.66 2.64 5 4 C5.66 3.01 6.32 2.02 7 1 C7.33 1.99 7.66 2.98 8 4 C8.66 4 9.32 4 10 4 C10 5.32 10 6.64 10 8 C10.66 8 11.32 8 12 8 C13.36118461 10.24195113 14.06138028 11.47826762 13.75 14.125 C13 16 13 16 11 18 C6.76610248 12.19623036 3.0209354 6.52522047 0 0 Z " fill="#EACD30" transform="translate(224,432)"/>
<path d="M0 0 C0.33 0.66 0.66 1.32 1 2 C3.02463255 2.65213292 3.02463255 2.65213292 5 3 C5 4.32 5 5.64 5 7 C5.66 7 6.32 7 7 7 C7 6.34 7 5.68 7 5 C7.66 5 8.32 5 9 5 C9 6.32 9 7.64 9 9 C10.65 9 12.3 9 14 9 C10.65996398 13.32239956 7.67248931 16.17477391 3 19 C2.77963136 15.14354879 3.39644899 12.50776784 5 9 C4.34 9 3.68 9 3 9 C3 7.68 3 6.36 3 5 C2.34 5 1.68 5 1 5 C1 4.34 1 3.68 1 3 C0.01 2.67 -0.98 2.34 -2 2 C-1.34 1.34 -0.68 0.68 0 0 Z " fill="#1F3E5A" transform="translate(321,453)"/>
<path d="M0 0 C1.77734375 1.60546875 1.77734375 1.60546875 3 3 C0.04335481 4.4783226 -2.74229737 4.06032783 -6 4 C-6 3.34 -6 2.68 -6 2 C-5.34 2 -4.68 2 -4 2 C-4 1.34 -4 0.68 -4 0 C-5.8871875 -0.0309375 -5.8871875 -0.0309375 -7.8125 -0.0625 C-8.52019531 -0.07410156 -9.22789062 -0.08570313 -9.95703125 -0.09765625 C-12.20305461 -0.08263217 -12.20305461 -0.08263217 -15 1 C-14.67 1.66 -14.34 2.32 -14 3 C-16.64 2.67 -19.28 2.34 -22 2 C-21.34 1.34 -20.68 0.68 -20 0 C-22.64 0 -25.28 0 -28 0 C-19.96982396 -5.35345069 -8.49791454 -3.91839323 0 0 Z " fill="#D3BA24" transform="translate(428,346)"/>
<path d="M0 0 C1.20527344 0.00322266 2.41054688 0.00644531 3.65234375 0.00976562 C4.90660156 0.01814453 6.16085937 0.02652344 7.453125 0.03515625 C9.35771484 0.04192383 9.35771484 0.04192383 11.30078125 0.04882812 C14.43494336 0.06061069 17.56901041 0.07706209 20.703125 0.09765625 C20.703125 0.42765625 20.703125 0.75765625 20.703125 1.09765625 C19.053125 1.42765625 17.403125 1.75765625 15.703125 2.09765625 C15.703125 2.42765625 15.703125 2.75765625 15.703125 3.09765625 C6.463125 3.09765625 -2.776875 3.09765625 -12.296875 3.09765625 C-8.73000673 -0.46921202 -4.86308514 -0.02293908 0 0 Z " fill="#E4CA36" transform="translate(410.296875,459.90234375)"/>
<path d="M0 0 C3.96 0 7.92 0 12 0 C12 0.66 12 1.32 12 2 C10.68 2 9.36 2 8 2 C8 2.66 8 3.32 8 4 C6.68 4 5.36 4 4 4 C4 4.66 4 5.32 4 6 C5.32 6 6.64 6 8 6 C8 6.66 8 7.32 8 8 C8.66 8.33 9.32 8.66 10 9 C6.7 9.33 3.4 9.66 0 10 C0 6.7 0 3.4 0 0 Z " fill="#F3CE2B" transform="translate(210,418)"/>
<path d="M0 0 C0.66 0 1.32 0 2 0 C2 0.99 2 1.98 2 3 C2.99 3.33 3.98 3.66 5 4 C4.01 4.495 4.01 4.495 3 5 C2.26924352 7.3140622 1.59861742 9.64828869 1 12 C0.01 12 -0.98 12 -2 12 C-2 13.32 -2 14.64 -2 16 C-2.66 15.67 -3.32 15.34 -4 15 C-4 10.71 -4 6.42 -4 2 C-2.68 2 -1.36 2 0 2 C0 1.34 0 0.68 0 0 Z " fill="#DFC32F" transform="translate(262,516)"/>
<path d="M0 0 C2.49231085 0.3665163 3.67346311 0.58678974 5.265625 2.6015625 C7.5775304 7.35381248 8.44026211 10.71685468 8 16 C5.87491756 12.81237635 5.4979837 10.73487777 5 7 C3.35 7 1.7 7 0 7 C0 8.98 0 10.96 0 13 C-0.66 13 -1.32 13 -2 13 C-2 9.7 -2 6.4 -2 3 C-1.34 3 -0.68 3 0 3 C0 2.01 0 1.02 0 0 Z " fill="#EAD02C" transform="translate(292,271)"/>
<path d="M0 0 C0.67736481 2.03814233 1.34143534 4.08070555 2 6.125 C2.37125 7.26195312 2.7425 8.39890625 3.125 9.5703125 C3.96911949 12.87895941 4.16509276 15.60528016 4 19 C2.68 18.34 1.36 17.68 0 17 C0 13.7 0 10.4 0 7 C-1.32 7 -2.64 7 -4 7 C-4 5.68 -4 4.36 -4 3 C-4.66 2.67 -5.32 2.34 -6 2 C-3 0 -3 0 0 0 Z " fill="#D8C134" transform="translate(418,503)"/>
<path d="M0 0 C0 1.98 0 3.96 0 6 C0.66 6 1.32 6 2 6 C2 6.66 2 7.32 2 8 C2.66 8 3.32 8 4 8 C4.66 10.31 5.32 12.62 6 15 C2.12488273 14.45015228 0.40423494 12.72444669 -2.25 9.9375 C-2.95640625 9.20402344 -3.6628125 8.47054688 -4.390625 7.71484375 C-4.92171875 7.14894531 -5.4528125 6.58304687 -6 6 C-5.09643253 3.28929759 -3.37844266 0 0 0 Z " fill="#F4D630" transform="translate(136,370)"/>
<path d="M0 0 C-1.98 0.99 -1.98 0.99 -4 2 C-2.68 2.33 -1.36 2.66 0 3 C0.33 2.34 0.66 1.68 1 1 C8.17894737 -0.27368421 8.17894737 -0.27368421 12 1 C12 1.66 12 2.32 12 3 C10.02 3 8.04 3 6 3 C6 3.66 6 4.32 6 5 C-0.40353322 5.2361959 -5.84629161 4.823321 -12 3 C-8.2391768 -0.7608232 -5.0273023 -0.25136512 0 0 Z " fill="#E7CD33" transform="translate(412,345)"/>
<path d="M0 0 C0.33 0 0.66 0 1 0 C1 1.65 1 3.3 1 5 C1.66 5 2.32 5 3 5 C3.33 4.34 3.66 3.68 4 3 C4.99 3.33 5.98 3.66 7 4 C7 4.66 7 5.32 7 6 C1.25 7.125 1.25 7.125 -1 6 C-0.67 6.99 -0.34 7.98 0 9 C-0.99 9.33 -1.98 9.66 -3 10 C-3.33 10.66 -3.66 11.32 -4 12 C-4.99 12 -5.98 12 -7 12 C-6.67 13.32 -6.34 14.64 -6 16 C-7.65 16 -9.3 16 -11 16 C-9.4512456 12.51327545 -7.35487655 9.81445969 -4.9375 6.875 C-2.19551253 3.61448977 -2.19551253 3.61448977 0 0 Z " fill="#E1CA36" transform="translate(347,446)"/>
<path d="M0 0 C0.33 0 0.66 0 1 0 C3.0867201 13.56368068 1.72062447 27.36179865 1 41 C0.67 41 0.34 41 0 41 C-1.63025207 8.79818579 -1.63025207 8.79818579 0 0 Z " fill="#B09A28" transform="translate(256,284)"/>
<path d="M0 0 C0 1.98 0 3.96 0 6 C0.66 6 1.32 6 2 6 C2 6.66 2 7.32 2 8 C1.38511719 8.06058594 0.77023437 8.12117188 0.13671875 8.18359375 C-1.07564453 8.30927734 -1.07564453 8.30927734 -2.3125 8.4375 C-3.11300781 8.51871094 -3.91351563 8.59992188 -4.73828125 8.68359375 C-7.16087179 8.95265693 -7.16087179 8.95265693 -10 10 C-9.67 9.01 -9.34 8.02 -9 7 C-9.66 6.34 -10.32 5.68 -11 5 C-9.54462432 4.16151196 -8.08559627 3.32936066 -6.625 2.5 C-5.81289063 2.0359375 -5.00078125 1.571875 -4.1640625 1.09375 C-2 0 -2 0 0 0 Z " fill="#E8CC31" transform="translate(318,476)"/>
<path d="M0 0 C4.48025782 0.2762685 8.95886987 0.57357537 13.4375 0.875 C15.3565918 0.99294922 15.3565918 0.99294922 17.31445312 1.11328125 C18.52939453 1.19707031 19.74433594 1.28085937 20.99609375 1.3671875 C22.12200928 1.44050293 23.2479248 1.51381836 24.40795898 1.58935547 C25.26333252 1.72486816 26.11870605 1.86038086 27 2 C27.33 2.66 27.66 3.32 28 4 C24.64600151 4.0878954 21.2923036 4.14068879 17.9375 4.1875 C16.99455078 4.21263672 16.05160156 4.23777344 15.08007812 4.26367188 C9.23357264 4.32478517 5.18712456 3.74104641 0 1 C0 0.67 0 0.34 0 0 Z " fill="#ECDF40" transform="translate(260,466)"/>
<path d="M0 0 C0.33 0 0.66 0 1 0 C1.04970693 4.02014331 1.08586387 8.04016578 1.10986328 12.06054688 C1.1198759 13.4261385 1.13349005 14.79170894 1.15087891 16.15722656 C1.17533573 18.12815912 1.1854572 20.09925284 1.1953125 22.0703125 C1.20578613 23.25383301 1.21625977 24.43735352 1.22705078 25.65673828 C0.99409659 29.08692611 0.23025564 31.80303811 -1 35 C-3.67927341 30.98108988 -3.15601248 28.75838077 -3 24 C-2.34 24 -1.68 24 -1 24 C-0.67 16.08 -0.34 8.16 0 0 Z " fill="#E8C933" transform="translate(293,552)"/>
<path d="M0 0 C3.33333333 3.33333333 6.66666667 6.66666667 10 10 C8.68 10 7.36 10 6 10 C6 10.66 6 11.32 6 12 C4.68 12 3.36 12 2 12 C2 11.34 2 10.68 2 10 C0.68 10 -0.64 10 -2 10 C-2 8.68 -2 7.36 -2 6 C-1.01 5.67 -0.02 5.34 1 5 C0.67 3.35 0.34 1.7 0 0 Z " fill="#253D58" transform="translate(234,448)"/>
<path d="M0 0 C1.19109375 0.23976563 1.19109375 0.23976563 2.40625 0.484375 C4.5 1.25 4.5 1.25 6.5 4.25 C6.17 4.91 5.84 5.57 5.5 6.25 C8.47 6.745 8.47 6.745 11.5 7.25 C9.84765625 8.41796875 9.84765625 8.41796875 7.5 9.25 C4.80859375 8.23828125 4.80859375 8.23828125 1.9375 6.5625 C0.98746094 6.02238281 0.03742188 5.48226563 -0.94140625 4.92578125 C-3.11230785 3.50392356 -4.77723947 2.1699789 -6.5 0.25 C-3.92394633 -1.03802683 -2.78552023 -0.59689719 0 0 Z " fill="#D8BE2D" transform="translate(146.5,384.75)"/>
<path d="M0 0 C5.48766914 0.50811751 10.34155711 1.63787745 15.58984375 3.30078125 C18.72508814 4.21035782 21.75887579 4.64770389 25 5 C25 5.33 25 5.66 25 6 C23.25093341 6.19601608 21.50068154 6.38147403 19.75 6.5625 C18.77546875 6.66691406 17.8009375 6.77132813 16.796875 6.87890625 C14.21340534 6.99076038 12.40387135 6.92074889 10 6 C9.67 5.34 9.34 4.68 9 4 C6.69 4 4.38 4 2 4 C2 3.34 2 2.68 2 2 C1.34 2 0.68 2 0 2 C0 1.34 0 0.68 0 0 Z " fill="#E2C72B" transform="translate(246,480)"/>
<path d="M0 0 C2.475 0.495 2.475 0.495 5 1 C5 1.66 5 2.32 5 3 C6.32 3 7.64 3 9 3 C9 3.66 9 4.32 9 5 C10.98 5 12.96 5 15 5 C15 4.34 15 3.68 15 3 C18 4 18 4 19 6 C17.35 6.33 15.7 6.66 14 7 C14.99 7.66 15.98 8.32 17 9 C14 10 14 10 11.66015625 9.1796875 C6.76287196 6.71999885 3.00618591 4.78256849 0 0 Z " fill="#E6CE3B" transform="translate(113,451)"/>
<path d="M0 0 C-0.33 4.62 -0.66 9.24 -1 14 C-1.33 12.68 -1.66 11.36 -2 10 C-2.66 10 -3.32 10 -4 10 C-4 9.01 -4 8.02 -4 7 C-5.32 7 -6.64 7 -8 7 C-8 7.66 -8 8.32 -8 9 C-8.66 9 -9.32 9 -10 9 C-10 7.68 -10 6.36 -10 5 C-8.68 5 -7.36 5 -6 5 C-6 4.34 -6 3.68 -6 3 C-5.34 3 -4.68 3 -4 3 C-4 2.34 -4 1.68 -4 1 C-2 0 -2 0 0 0 Z " fill="#F4D436" transform="translate(380,297)"/>
<path d="M0 0 C2 2 2 2 2.125 5.125 C2.08375 6.07375 2.0425 7.0225 2 8 C1.34 8 0.68 8 0 8 C-0.061875 8.5775 -0.12375 9.155 -0.1875 9.75 C-1.32027301 12.88690987 -3.34197595 14.09167504 -6 16 C-6.71484375 14.390625 -6.71484375 14.390625 -7 12 C-5.56640625 8.984375 -5.56640625 8.984375 -3.5625 5.75 C-2.90378906 4.67234375 -2.24507813 3.5946875 -1.56640625 2.484375 C-1.04949219 1.66453125 -0.53257812 0.8446875 0 0 Z " fill="#D7C02E" transform="translate(326,314)"/>
<path d="M0 0 C0.99 0 1.98 0 3 0 C2.1875 2.4375 2.1875 2.4375 1 5 C0.01 5.33 -0.98 5.66 -2 6 C-2.35412344 7.32796291 -2.68521554 8.66216607 -3 10 C-5.04376677 12.62770014 -6.74333728 13.43850643 -10 14 C-10 13.34 -10 12.68 -10 12 C-9.34 12 -8.68 12 -8 12 C-8 10.35 -8 8.7 -8 7 C-6.68 6.67 -5.36 6.34 -4 6 C-4 4.68 -4 3.36 -4 2 C-3.34 2 -2.68 2 -2 2 C-2 2.66 -2 3.32 -2 4 C-1.34 4 -0.68 4 0 4 C0 2.68 0 1.36 0 0 Z " fill="#E5CF30" transform="translate(324,444)"/>
<path d="M0 0 C0.66 0 1.32 0 2 0 C2 1.32 2 2.64 2 4 C3.65 4 5.3 4 7 4 C6.34 6.64 5.68 9.28 5 12 C3.35 11.67 1.7 11.34 0 11 C-0.84098656 6.98195309 -1.05404945 3.98196457 0 0 Z " fill="#1D3D6B" transform="translate(210,432)"/>
<path d="M0 0 C1.32 0.33 2.64 0.66 4 1 C1.81439265 6.22117311 -0.48394002 8.77424287 -5 12 C-7.375 12.8125 -7.375 12.8125 -9 13 C-9 12.34 -9 11.68 -9 11 C-8.34 10.67 -7.68 10.34 -7 10 C-7 9.34 -7 8.68 -7 8 C-5.68 8 -4.36 8 -3 8 C-2.814375 6.8553125 -2.814375 6.8553125 -2.625 5.6875 C-2 3 -2 3 0 0 Z " fill="#D1BB33" transform="translate(351,572)"/>
<path d="M0 0 C1.32 0 2.64 0 4 0 C4 1.98 4 3.96 4 6 C3.34 6 2.68 6 2 6 C2 6.66 2 7.32 2 8 C1.34 8 0.68 8 0 8 C0 8.66 0 9.32 0 10 C-0.99 10 -1.98 10 -3 10 C-3.75 8.375 -3.75 8.375 -4 6 C-2.3125 2.75 -2.3125 2.75 0 0 Z " fill="#E7CA30" transform="translate(146,500)"/>
<path d="M0 0 C1.32 0 2.64 0 4 0 C4 0.66 4 1.32 4 2 C4.66 2 5.32 2 6 2 C6 3.32 6 4.64 6 6 C6.66 6 7.32 6 8 6 C8 6.66 8 7.32 8 8 C5.69 8 3.38 8 1 8 C1.33 6.68 1.66 5.36 2 4 C1.34 4 0.68 4 0 4 C0 4.66 0 5.32 0 6 C-0.66 6 -1.32 6 -2 6 C-2 4.68 -2 3.36 -2 2 C-1.34 2 -0.68 2 0 2 C0 1.34 0 0.68 0 0 Z " fill="#183868" transform="translate(318,456)"/>
<path d="M0 0 C2.43017578 -0.34057617 2.43017578 -0.34057617 5.4453125 -0.29296875 C6.52167969 -0.28330078 7.59804688 -0.27363281 8.70703125 -0.26367188 C10.39892578 -0.2259668 10.39892578 -0.2259668 12.125 -0.1875 C13.26066406 -0.17396484 14.39632813 -0.16042969 15.56640625 -0.14648438 C18.37807387 -0.11104319 21.18880417 -0.06163517 24 0 C20.71252584 2.19164944 19.51505175 2.28679386 15.67578125 2.4140625 C14.13374023 2.47207031 14.13374023 2.47207031 12.56054688 2.53125 C11.48869141 2.5621875 10.41683594 2.593125 9.3125 2.625 C8.22904297 2.66367187 7.14558594 2.70234375 6.02929688 2.7421875 C3.35303533 2.83650509 0.67678157 2.92210005 -2 3 C-1.34 2.01 -0.68 1.02 0 0 Z " fill="#BBA228" transform="translate(378,415)"/>
<path d="M0 0 C0 0.66 0 1.32 0 2 C-5.60944292 5.14128803 -11.68146331 6.22630163 -18 7 C-13.01844905 2.64114292 -6.86472585 -2.57427219 0 0 Z " fill="#CAB52A" transform="translate(388,354)"/>
<path d="M0 0 C1.65 0 3.3 0 5 0 C5.33 0.99 5.66 1.98 6 3 C4.68 3.33 3.36 3.66 2 4 C2 4.66 2 5.32 2 6 C1.34 6 0.68 6 0 6 C0 6.66 0 7.32 0 8 C-1.32 8 -2.64 8 -4 8 C-4 6.02 -4 4.04 -4 2 C-3.34 1.67 -2.68 1.34 -2 1 C-1.34 1.33 -0.68 1.66 0 2 C0 1.34 0 0.68 0 0 Z " fill="#F0D124" transform="translate(374,294)"/>
<path d="M0 0 C4.29 2.31 8.58 4.62 13 7 C13 7.33 13 7.66 13 8 C10.03 8 7.06 8 4 8 C4 7.34 4 6.68 4 6 C2.02 5.34 0.04 4.68 -2 4 C-2 3.34 -2 2.68 -2 2 C-1.34 2 -0.68 2 0 2 C0 1.34 0 0.68 0 0 Z " fill="#1E3A54" transform="translate(244,458)"/>
<path d="M0 0 C0.66 0 1.32 0 2 0 C2 3.3 2 6.6 2 10 C1.01 10 0.02 10 -1 10 C-1.33 10.99 -1.66 11.98 -2 13 C-3.29243536 8.8803623 -4.26252625 5.33168317 -4 1 C-3.01 2.485 -3.01 2.485 -2 4 C-1.34 4 -0.68 4 0 4 C0 2.68 0 1.36 0 0 Z " fill="#E3C622" transform="translate(184,304)"/>
<path d="M0 0 C0.77601563 0.07863281 1.55203125 0.15726562 2.3515625 0.23828125 C4.375 0.6875 4.375 0.6875 6.375 2.6875 C2.62213079 3.9384564 -0.68479136 3.6875 -4.625 3.6875 C-5.615 4.0175 -6.605 4.3475 -7.625 4.6875 C-10.3125 4.25 -10.3125 4.25 -12.625 3.6875 C-8.42957108 0.24125482 -5.37772923 -0.6025215 0 0 Z " fill="#C8B43C" transform="translate(282.625,263.3125)"/>
<path d="M0 0 C0.99 0 1.98 0 3 0 C3 0.66 3 1.32 3 2 C3.66 2 4.32 2 5 2 C5 2.66 5 3.32 5 4 C4.34 4 3.68 4 3 4 C3 7.27275026 3.29925156 9.846632 4 13 C-0.875 8.25 -0.875 8.25 -2 6 C-1.39421747 3.98072489 -0.73080266 1.97746603 0 0 Z " fill="#E3C628" transform="translate(199,336)"/>
<path d="M0 0 C0 0.99 0 1.98 0 3 C-4.95 3 -9.9 3 -15 3 C-15.33 2.01 -15.66 1.02 -16 0 C-10.42289352 -1.06795656 -5.60563042 -0.82622671 0 0 Z " fill="#D0B82C" transform="translate(207,285)"/>
<path d="M0 0 C-7.61010047 3.43200609 -13.66262211 4.14570175 -22 4 C-22.33 3.34 -22.66 2.68 -23 2 C-22.13117188 1.95101562 -21.26234375 1.90203125 -20.3671875 1.8515625 C-19.21476563 1.77679687 -18.06234375 1.70203125 -16.875 1.625 C-15.16957031 1.52058594 -15.16957031 1.52058594 -13.4296875 1.4140625 C-0.41019417 -0.15776699 -0.41019417 -0.15776699 0 0 Z " fill="#E3CA3E" transform="translate(176,532)"/>
<path d="M0 0 C0.33 0 0.66 0 1 0 C1.62837838 8.16891892 1.62837838 8.16891892 -0.9375 11.5625 C-3 13 -3 13 -4 13 C-4 10.36 -4 7.72 -4 5 C-3.34 5 -2.68 5 -2 5 C-2 4.34 -2 3.68 -2 3 C-1.34 3 -0.68 3 0 3 C0 2.01 0 1.02 0 0 Z " fill="#DECA44" transform="translate(420,517)"/>
<path d="M0 0 C0.66 0 1.32 0 2 0 C2 4.62 2 9.24 2 14 C1.01 14 0.02 14 -1 14 C-2.51708428 4.58997722 -2.51708428 4.58997722 0 0 Z " fill="#B8A731" transform="translate(140,510)"/>
<path d="M0 0 C0.99 0 1.98 0 3 0 C3 0.99 3 1.98 3 3 C3.66 3.33 4.32 3.66 5 4 C5.625 7.0625 5.625 7.0625 6 10 C2.22699642 8.9802693 1.19793856 8.34127338 -0.8125 4.875 C-1.204375 3.92625 -1.59625 2.9775 -2 2 C-1.34 2 -0.68 2 0 2 C0 1.34 0 0.68 0 0 Z " fill="#D8C031" transform="translate(271,582)"/>
<path d="M0 0 C2.60444348 -0.05394705 5.20776998 -0.09364469 7.8125 -0.125 C8.55048828 -0.14175781 9.28847656 -0.15851563 10.04882812 -0.17578125 C13.91246426 -0.21074628 15.70903668 -0.19397555 19 2 C18.67 2.33 18.34 2.66 18 3 C15.13311752 2.90903444 12.29699485 2.76232012 9.4375 2.5625 C8.63119141 2.51029297 7.82488281 2.45808594 6.99414062 2.40429688 C4.99578262 2.27422624 2.99784614 2.13770944 1 2 C0.67 1.34 0.34 0.68 0 0 Z " fill="#DCC744" transform="translate(368,458)"/>
<path d="M0 0 C0.66 0 1.32 0 2 0 C2 0.66 2 1.32 2 2 C3.32 2 4.64 2 6 2 C6 3.98 6 5.96 6 8 C4.02 8 2.04 8 0 8 C0 5.36 0 2.72 0 0 Z " fill="#1C3C70" transform="translate(330,454)"/>
<path d="M0 0 C0.66 0 1.32 0 2 0 C2 0.66 2 1.32 2 2 C3.32 2 4.64 2 6 2 C6 3.32 6 4.64 6 6 C6.66 6 7.32 6 8 6 C8 7.32 8 8.64 8 10 C8.66 10 9.32 10 10 10 C10 10.66 10 11.32 10 12 C10.66 12 11.32 12 12 12 C11.67 12.99 11.34 13.98 11 15 C9.53308542 13.44555348 8.07679359 11.88107825 6.625 10.3125 C5.81289062 9.44238281 5.00078125 8.57226562 4.1640625 7.67578125 C2.11022491 5.13628893 1.0099332 3.07974134 0 0 Z " fill="#293D4A" transform="translate(214,448)"/>
<path d="M0 0 C0.66 0.33 1.32 0.66 2 1 C-3.11021928 5.7363008 -7.27151508 7.86441873 -14.4375 8.125 C-15.283125 8.08375 -16.12875 8.0425 -17 8 C-16.67 7.34 -16.34 6.68 -16 6 C-13.93734178 5.6088062 -11.90556733 5.49325481 -9.8125 5.34375 C-9.214375 5.2303125 -8.61625 5.116875 -8 5 C-7.67 4.34 -7.34 3.68 -7 3 C-3.5625 1.3125 -3.5625 1.3125 0 0 Z " fill="#C6B231" transform="translate(417,529)"/>
<path d="M0 0 C3.465 1.98 3.465 1.98 7 4 C4 6 4 6 0 6 C0 6.66 0 7.32 0 8 C-0.66 8 -1.32 8 -2 8 C-2.6875 5.6875 -2.6875 5.6875 -3 3 C-1.5625 1.1875 -1.5625 1.1875 0 0 Z " fill="#E1C72C" transform="translate(402,490)"/>
<path d="M0 0 C4.62 0 9.24 0 14 0 C13.01 0.495 13.01 0.495 12 1 C11.34786708 3.02463255 11.34786708 3.02463255 11 5 C9.35 5 7.7 5 6 5 C6 4.67 6 4.34 6 4 C3.03 3.505 3.03 3.505 0 3 C0 2.01 0 1.02 0 0 Z " fill="#EED63F" transform="translate(346,367)"/>
<path d="M0 0 C3.91211733 1.15585285 6.8745041 2.35534962 10 5 C5.545 5.495 5.545 5.495 1 6 C1 5.34 1 4.68 1 4 C0.34 4 -0.32 4 -1 4 C-0.67 2.68 -0.34 1.36 0 0 Z " fill="#E8CB2D" transform="translate(175,352)"/>
<path d="M0 0 C0.33 0 0.66 0 1 0 C1.06058594 0.67546875 1.12117188 1.3509375 1.18359375 2.046875 C1.26738281 2.93890625 1.35117188 3.8309375 1.4375 4.75 C1.51871094 5.63171875 1.59992188 6.5134375 1.68359375 7.421875 C1.96238465 9.69350452 2.38790577 11.79851823 3 14 C4.32 13.67 5.64 13.34 7 13 C7 14.98 7 16.96 7 19 C6.01 19 5.02 19 4 19 C-0.53574091 12.76335625 -0.44701413 7.56198897 0 0 Z " fill="#CCB72B" transform="translate(125,356)"/>
<path d="M0 0 C0.99 0.495 0.99 0.495 2 1 C2 2.32 2 3.64 2 5 C3.65 4.67 5.3 4.34 7 4 C7.33 7.3 7.66 10.6 8 14 C7.34 14 6.68 14 6 14 C6 12.35 6 10.7 6 9 C5.34 9 4.68 9 4 9 C4 8.34 4 7.68 4 7 C2.68 7 1.36 7 0 7 C0 4.69 0 2.38 0 0 Z " fill="#E0C22D" transform="translate(294,279)"/>
<path d="M0 0 C0.33 0 0.66 0 1 0 C2.62077189 5.61036424 3.55579195 9.46245077 1 15 C0.67 15 0.34 15 0 15 C0 13.35 0 11.7 0 10 C-0.33 10.33 -0.66 10.66 -1 11 C-1.66 10.01 -2.32 9.02 -3 8 C-2.5390625 5.95703125 -2.5390625 5.95703125 -1.625 3.8125 C-1.32851562 3.09707031 -1.03203125 2.38164063 -0.7265625 1.64453125 C-0.36691406 0.83048828 -0.36691406 0.83048828 0 0 Z " fill="#D1B82F" transform="translate(251,549)"/>
<path d="M0 0 C0 0.99 0 1.98 0 3 C-0.66 3 -1.32 3 -2 3 C-2 3.66 -2 4.32 -2 5 C-2.66 5 -3.32 5 -4 5 C-4 4.34 -4 3.68 -4 3 C-7.12474627 4.63473516 -7.12474627 4.63473516 -7.6875 7.125 C-7.790625 7.74375 -7.89375 8.3625 -8 9 C-8.66 9 -9.32 9 -10 9 C-10.75 7.25 -10.75 7.25 -11 5 C-8.99619516 2.30257041 -7.61851033 1.17671724 -4.375 0.25 C-2 0 -2 0 0 0 Z " fill="#DAC338" transform="translate(124,423)"/>
<path d="M0 0 C0.33 0.99 0.66 1.98 1 3 C0.00390625 4.82421875 0.00390625 4.82421875 -1.4375 6.6875 C-1.91058594 7.31011719 -2.38367188 7.93273437 -2.87109375 8.57421875 C-3.24363281 9.04472656 -3.61617188 9.51523437 -4 10 C-5.32 9.67 -6.64 9.34 -8 9 C-8 8.34 -8 7.68 -8 7 C-7.34 7 -6.68 7 -6 7 C-5.67 5.68 -5.34 4.36 -5 3 C-4.01 3 -3.02 3 -2 3 C-2 2.34 -2 1.68 -2 1 C-1.34 0.67 -0.68 0.34 0 0 Z " fill="#D5C034" transform="translate(366,335)"/>
<path d="M0 0 C1.53508028 2.43338652 2.03088304 3.67124507 1.7578125 6.578125 C1.54898438 7.45984375 1.34015625 8.3415625 1.125 9.25 C0.92132813 10.14203125 0.71765625 11.0340625 0.5078125 11.953125 C0.34023437 12.62859375 0.17265625 13.3040625 0 14 C-0.66 14 -1.32 14 -2 14 C-3.55577239 8.34264585 -2.24281523 5.20333134 0 0 Z " fill="#D9BE2B" transform="translate(214,524)"/>
<path d="M0 0 C1.32 0 2.64 0 4 0 C4 0.66 4 1.32 4 2 C4.66 2 5.32 2 6 2 C6 3.32 6 4.64 6 6 C6.99 6.33 7.98 6.66 9 7 C4.12637153 6.54663921 1.60957611 5.2910841 -2 2 C-1.34 2 -0.68 2 0 2 C0 1.34 0 0.68 0 0 Z " fill="#23404E" transform="translate(246,474)"/>
<path d="M0 0 C-2.09836004 1.03271642 -4.20390891 2.05083717 -6.3125 3.0625 C-7.48425781 3.63097656 -8.65601563 4.19945312 -9.86328125 4.78515625 C-13 6 -13 6 -16 5 C-14.68 4.67 -13.36 4.34 -12 4 C-12 3.34 -12 2.68 -12 2 C-11.34 2 -10.68 2 -10 2 C-10 1.34 -10 0.68 -10 0 C-2.25 -1.125 -2.25 -1.125 0 0 Z " fill="#CEBA33" transform="translate(406,396)"/>
<path d="M0 0 C5.71241466 0.38728235 8.73688282 0.87010523 13 5 C10.04335481 6.4783226 7.25770263 6.06032783 4 6 C4 5.34 4 4.68 4 4 C4.66 4 5.32 4 6 4 C6 3.34 6 2.68 6 2 C3.03 1.505 3.03 1.505 0 1 C0 0.67 0 0.34 0 0 Z " fill="#C9B332" transform="translate(418,344)"/>
<path d="M0 0 C1.24546405 2.49092811 0.7767578 3.41080733 0 6 C0.66 6 1.32 6 2 6 C2 6.66 2 7.32 2 8 C-2.455 8.495 -2.455 8.495 -7 9 C-5.03681826 5.46627288 -2.95929119 2.75520215 0 0 Z " fill="#F3DC36" transform="translate(342,292)"/>
<path d="M0 0 C0.66 0 1.32 0 2 0 C2 0.66 2 1.32 2 2 C2.66 2.33 3.32 2.66 4 3 C3.67 4.32 3.34 5.64 3 7 C2.01 7 1.02 7 0 7 C0 7.66 0 8.32 0 9 C-1.65 9 -3.3 9 -5 9 C-4.67 8.34 -4.34 7.68 -4 7 C-3.34 7 -2.68 7 -2 7 C-2 6.01 -2 5.02 -2 4 C-1.34 4 -0.68 4 0 4 C0 2.68 0 1.36 0 0 Z " fill="#F2D431" transform="translate(342,576)"/>
<path d="M0 0 C8.07861415 -0.09579384 15.98340366 -0.12513633 24 1 C24 1.33 24 1.66 24 2 C21.87562788 2.19448477 19.75046809 2.38038289 17.625 2.5625 C16.44164062 2.66691406 15.25828125 2.77132813 14.0390625 2.87890625 C11 3 11 3 9 2 C7.46331135 1.77532169 5.92031946 1.59203195 4.375 1.4375 C3.55773437 1.35371094 2.74046875 1.26992188 1.8984375 1.18359375 C1.27195313 1.12300781 0.64546875 1.06242187 0 1 C0 0.67 0 0.34 0 0 Z " fill="#C4AE31" transform="translate(144,460)"/>
<path d="M0 0 C0.66 0 1.32 0 2 0 C2 2.64 2 5.28 2 8 C1.34 8 0.68 8 0 8 C-0.33 8.99 -0.66 9.98 -1 11 C-1.33 9.35 -1.66 7.7 -2 6 C-2.66 6 -3.32 6 -4 6 C-4 5.34 -4 4.68 -4 4 C-2.68 4 -1.36 4 0 4 C0 2.68 0 1.36 0 0 Z " fill="#153768" transform="translate(346,436)"/>
<path d="M0 0 C3.125 -0.4375 3.125 -0.4375 7 0 C9.38682039 2.06581634 11.20049043 4.41608882 13 7 C12.67 7.66 12.34 8.32 12 9 C11.01 8.34 10.02 7.68 9 7 C9 6.34 9 5.68 9 5 C7.68 5 6.36 5 5 5 C5 3.68 5 2.36 5 1 C3.35 1 1.7 1 0 1 C0 0.67 0 0.34 0 0 Z " fill="#334644" transform="translate(213,427)"/>
<path d="M0 0 C2.29404844 3.44107266 2.26293056 4.96839809 2 9 C1 10 1 10 -2.25 10.125 C-5.33603789 10.02213207 -8.01424114 9.72382033 -11 9 C-11 8.67 -11 8.34 -11 8 C-7.37 8 -3.74 8 0 8 C0 5.36 0 2.72 0 0 Z " fill="#F9DF31" transform="translate(211,359)"/>
<path d="M0 0 C1.98 0.99 3.96 1.98 6 3 C6 3.66 6 4.32 6 5 C6.66 5.33 7.32 5.66 8 6 C5.69 6.33 3.38 6.66 1 7 C0.67 4.69 0.34 2.38 0 0 Z " fill="#F2D439" transform="translate(276,585)"/>
<path d="M0 0 C2.64 0 5.28 0 8 0 C8 0.66 8 1.32 8 2 C9.65 2 11.3 2 13 2 C13 2.99 13 3.98 13 5 C12.34 4.67 11.68 4.34 11 4 C9.45976004 3.93049459 7.91665012 3.91547643 6.375 3.9375 C5.55773437 3.94652344 4.74046875 3.95554687 3.8984375 3.96484375 C3.27195312 3.97644531 2.64546875 3.98804688 2 4 C2 3.34 2 2.68 2 2 C1.34 2 0.68 2 0 2 C0 1.34 0 0.68 0 0 Z " fill="#DFCB42" transform="translate(336,424)"/>
<path d="M0 0 C2.72675159 2.40689803 4.11966596 4.92471023 5.6875 8.1875 C6.12449219 9.08855469 6.56148437 9.98960937 7.01171875 10.91796875 C7.33785156 11.60503906 7.66398438 12.29210937 8 13 C7.01 13 6.02 13 5 13 C4.34 11.35 3.68 9.7 3 8 C2.34 8 1.68 8 1 8 C0.67 5.36 0.34 2.72 0 0 Z " fill="#D2C033" transform="translate(235,316)"/>
<path d="M0 0 C0 1.32 0 2.64 0 4 C-1.41543415 4.19658808 -2.83244031 4.38187546 -4.25 4.5625 C-5.03890625 4.66691406 -5.8278125 4.77132813 -6.640625 4.87890625 C-9.00532874 5.00027349 -10.7511037 4.69633257 -13 4 C-11.72942818 3.52014033 -10.45853152 3.0411407 -9.1875 2.5625 C-8.47980469 2.29566406 -7.77210938 2.02882813 -7.04296875 1.75390625 C-2.29015544 0 -2.29015544 0 0 0 Z " fill="#283F4D" transform="translate(306,464)"/>
<path d="M0 0 C4.67692308 1.47692308 4.67692308 1.47692308 6.3125 4.125 C6.539375 4.74375 6.76625 5.3625 7 6 C4.36 6 1.72 6 -1 6 C-1.042721 4.33388095 -1.04063832 2.66617115 -1 1 C-0.67 0.67 -0.34 0.34 0 0 Z " fill="#274157" transform="translate(227,442)"/>
<path d="M0 0 C0.33 1.32 0.66 2.64 1 4 C-0.32 4 -1.64 4 -3 4 C-3 4.66 -3 5.32 -3 6 C-7.455 6.495 -7.455 6.495 -12 7 C-8.35140239 3.95950199 -4.2555467 2.03481238 0 0 Z " fill="#C5B32B" transform="translate(397,346)"/>
<path d="M0 0 C3.34676814 1.03865218 4.02532602 2.04612953 5.75 5.1875 C7.16343391 8.82422724 7.23857902 12.10320937 7 16 C5.20607816 13.30911724 4.10715694 10.98862913 2.9375 8 C2.59589844 7.13375 2.25429688 6.2675 1.90234375 5.375 C1.22732926 3.59833847 0.60101337 1.80304012 0 0 Z " fill="#F7DC3A" transform="translate(293,271)"/>
<path d="M0 0 C0 0.66 0 1.32 0 2 C-3.3146667 4.02907167 -5.4315979 4.12742133 -9.25 3.625 C-10.14203125 3.51414062 -11.0340625 3.40328125 -11.953125 3.2890625 C-12.96632813 3.14597656 -12.96632813 3.14597656 -14 3 C-14 2.67 -14 2.34 -14 2 C-12.04396149 1.47061343 -10.08507711 0.95173199 -8.125 0.4375 C-7.03445313 0.14746094 -5.94390625 -0.14257812 -4.8203125 -0.44140625 C-2 -1 -2 -1 0 0 Z " fill="#E3CC3E" transform="translate(306,483)"/>
<path d="M0 0 C0.66 0 1.32 0 2 0 C2 0.66 2 1.32 2 2 C2.66 2 3.32 2 4 2 C3.34 4.97 2.68 7.94 2 11 C-0.67927341 6.98108988 -0.15601248 4.75838077 0 0 Z " fill="#D1B525" transform="translate(290,576)"/>
<path d="M0 0 C0.33 0 0.66 0 1 0 C1.33 1.65 1.66 3.3 2 5 C2.66 3.68 3.32 2.36 4 1 C4.06058594 1.69867187 4.12117187 2.39734375 4.18359375 3.1171875 C4.26738281 4.02726563 4.35117188 4.93734375 4.4375 5.875 C4.51871094 6.77992188 4.59992188 7.68484375 4.68359375 8.6171875 C4.86989285 11.01110861 4.86989285 11.01110861 6 13 C3.67241689 12.06896676 2.25642868 11.34617872 0.75 9.3125 C-0.27095909 6.16454282 -0.12632947 3.28456632 0 0 Z " fill="#ECD33F" transform="translate(204,565)"/>
<path d="M0 0 C0.66 0 1.32 0 2 0 C2.33 3.63 2.66 7.26 3 11 C1.68 10.34 0.36 9.68 -1 9 C-1.09765625 2.84765625 -1.09765625 2.84765625 -1 1 C-0.67 0.67 -0.34 0.34 0 0 Z " fill="#C3A931" transform="translate(419,511)"/>
<path d="M0 0 C1.32 0 2.64 0 4 0 C4 0.66 4 1.32 4 2 C4.33 2.33 4.66 2.66 5 3 C3.37660195 4.70884005 1.70680947 6.37446717 0 8 C-0.66 8 -1.32 8 -2 8 C-2 6.68 -2 5.36 -2 4 C-1.34 4 -0.68 4 0 4 C0 2.68 0 1.36 0 0 Z " fill="#E0C931" transform="translate(198,510)"/>
<path d="M0 0 C1.81618856 1.11903546 3.62785526 2.24541284 5.4375 3.375 C6.44683594 4.00148438 7.45617187 4.62796875 8.49609375 5.2734375 C11 7 11 7 12 9 C11.01 9.33 10.02 9.66 9 10 C8.34 9.67 7.68 9.34 7 9 C7 8.34 7 7.68 7 7 C6.34 7 5.68 7 5 7 C4.67 6.34 4.34 5.68 4 5 C1.98330173 3.86649466 1.98330173 3.86649466 0 3 C0 2.01 0 1.02 0 0 Z " fill="#D5BF31" transform="translate(387,479)"/>
<path d="M0 0 C2 0 4 0 6 0 C6 0.66 6 1.32 6 2 C5.34 2 4.68 2 4 2 C4 3.98 4 5.96 4 8 C2.68 8 1.36 8 0 8 C0 7.34 0 6.68 0 6 C0.66 6 1.32 6 2 6 C2 5.34 2 4.68 2 4 C1.34 4 0.68 4 0 4 C0 2.68 0 1.36 0 0 Z " fill="#17366C" transform="translate(338,430)"/>
<path d="M0 0 C0.66 0 1.32 0 2 0 C1.34 5.28 0.68 10.56 0 16 C-2.21614886 11.56770228 -2.51387226 8.82249354 -2 4 C-1 1.5 -1 1.5 0 0 Z " fill="#F3DC45" transform="translate(182,293)"/>
<path d="M0 0 C0.33 0 0.66 0 1 0 C2.12862175 5.36095333 2.09688221 10.55306686 2 16 C1.01 15.67 0.02 15.34 -1 15 C-0.67 10.05 -0.34 5.1 0 0 Z " fill="#A19436" transform="translate(204,554)"/>
<path d="M0 0 C5.00890086 0.61512818 10.00632136 1.2717552 15 2 C15 2.33 15 2.66 15 3 C13.25093341 3.19601608 11.50068154 3.38147403 9.75 3.5625 C8.77546875 3.66691406 7.8009375 3.77132813 6.796875 3.87890625 C4.2368648 3.98974468 2.41851841 3.77738092 0 3 C0 2.01 0 1.02 0 0 Z " fill="#DDC745" transform="translate(256,483)"/>
<path d="M0 0 C3.3 0 6.6 0 10 0 C10 0.66 10 1.32 10 2 C8.68 2 7.36 2 6 2 C6 2.66 6 3.32 6 4 C7.32 4 8.64 4 10 4 C10 4.66 10 5.32 10 6 C8.02 6 6.04 6 4 6 C4 4.35 4 2.7 4 1 C2.68 0.67 1.36 0.34 0 0 Z " fill="#27426C" transform="translate(288,468)"/>
<path d="M0 0 C1.65 0 3.3 0 5 0 C5 1.32 5 2.64 5 4 C5.99 4.33 6.98 4.66 8 5 C7.34 6.65 6.68 8.3 6 10 C3.8276509 6.74147635 1.92880342 3.40755272 0 0 Z " fill="#C6B42C" transform="translate(205,352)"/>
<path d="M0 0 C3.41021743 0.78697325 6.68885166 1.87119943 10 3 C10 3.33 10 3.66 10 4 C8.3603125 4.2165625 8.3603125 4.2165625 6.6875 4.4375 C3.06877013 4.88288104 3.06877013 4.88288104 0 6 C0 4.02 0 2.04 0 0 Z " fill="#F6D331" transform="translate(398,346)"/>
<path d="M0 0 C0.99 0.66 1.98 1.32 3 2 C2.67 3.65 2.34 5.3 2 7 C-0.64 5.68 -3.28 4.36 -6 3 C-6 2.67 -6 2.34 -6 2 C-4.02 2 -2.04 2 0 2 C0 1.34 0 0.68 0 0 Z " fill="#CDB529" transform="translate(381,525)"/>
<path d="M0 0 C0.66 0 1.32 0 2 0 C2 0.66 2 1.32 2 2 C2.99 2.33 3.98 2.66 5 3 C4.67 3.99 4.34 4.98 4 6 C3.34 6 2.68 6 2 6 C2 6.66 2 7.32 2 8 C1.34 8 0.68 8 0 8 C-0.98120464 4.94736336 -0.98120464 3.05263664 0 0 Z " fill="#E4CA2D" transform="translate(228,466)"/>
<path d="M0 0 C-1.32 0.33 -2.64 0.66 -4 1 C-4 1.66 -4 2.32 -4 3 C-8.95 3 -13.9 3 -19 3 C-19 2.67 -19 2.34 -19 2 C-16.95928485 1.66089006 -14.91737379 1.32897296 -12.875 1 C-11.73804688 0.814375 -10.60109375 0.62875 -9.4296875 0.4375 C-6.23862398 0.03043951 -3.21182209 -0.07809902 0 0 Z " fill="#E5CF4F" transform="translate(178,458)"/>
<path d="M0 0 C2.475 0.99 2.475 0.99 5 2 C4.67 4.64 4.34 7.28 4 10 C3.34 10 2.68 10 2 10 C2 8.02 2 6.04 2 4 C1.34 4 0.68 4 0 4 C0 2.68 0 1.36 0 0 Z " fill="#E8CD33" transform="translate(368,404)"/>
<path d="M0 0 C0.33 0.99 0.66 1.98 1 3 C1.99 3.33 2.98 3.66 4 4 C3.01 4.66 2.02 5.32 1 6 C-2.6875 4.625 -2.6875 4.625 -6 3 C-6 2.34 -6 1.68 -6 1 C-4.7934375 1.0309375 -4.7934375 1.0309375 -3.5625 1.0625 C-1.06645115 1.29633621 -1.06645115 1.29633621 0 0 Z " fill="#D2BC32" transform="translate(173,397)"/>
<path d="M0 0 C0 0.66 0 1.32 0 2 C-0.66 2 -1.32 2 -2 2 C-2 2.66 -2 3.32 -2 4 C-3.32 4 -4.64 4 -6 4 C-6 4.99 -6 5.98 -6 7 C-8.97 6.505 -8.97 6.505 -12 6 C-3 0 -3 0 0 0 Z " fill="#DBC42E" transform="translate(370,361)"/>
<path d="M0 0 C0.33 0.66 0.66 1.32 1 2 C1.66 2 2.32 2 3 2 C3 1.34 3 0.68 3 0 C3.99 0 4.98 0 6 0 C5.1875 1.9375 5.1875 1.9375 4 4 C0.86650268 5.04449911 0.01031744 4.93423645 -3 4 C-2.67 3.01 -2.34 2.02 -2 1 C-1.34 0.67 -0.68 0.34 0 0 Z " fill="#F0D538" transform="translate(347,354)"/>
<path d="M0 0 C0.66 0 1.32 0 2 0 C2 1.32 2 2.64 2 4 C1.34 4.66 0.68 5.32 0 6 C0 6.66 0 7.32 0 8 C-0.99 8.33 -1.98 8.66 -3 9 C-3.66 7.68 -4.32 6.36 -5 5 C-3.625 3.5 -3.625 3.5 -2 2 C-1.34 2 -0.68 2 0 2 C0 1.34 0 0.68 0 0 Z " fill="#DFC12D" transform="translate(318,564)"/>
<path d="M0 0 C0.66 0.33 1.32 0.66 2 1 C-0.875 4.875 -0.875 4.875 -2 6 C-1.67 6.99 -1.34 7.98 -1 9 C-1.66 9 -2.32 9 -3 9 C-3 9.66 -3 10.32 -3 11 C-3.66 11 -4.32 11 -5 11 C-4.50769231 4.6 -4.50769231 4.6 -1.9375 1.5625 C-0.9784375 0.7890625 -0.9784375 0.7890625 0 0 Z " fill="#F2D634" transform="translate(191,465)"/>
<path d="M0 0 C0.66 0 1.32 0 2 0 C2.33 1.32 2.66 2.64 3 4 C3.33 3.34 3.66 2.68 4 2 C4.66 2 5.32 2 6 2 C5.39816251 4.02045442 4.72693904 6.02111039 4 8 C3.01 8.495 3.01 8.495 2 9 C2 8.01 2 7.02 2 6 C1.34 6 0.68 6 0 6 C0 4.02 0 2.04 0 0 Z " fill="#273D56" transform="translate(342,442)"/>
<path d="M0 0 C0.66 0 1.32 0 2 0 C2.53190541 1.43344 3.05015258 2.87195367 3.5625 4.3125 C3.85253906 5.11300781 4.14257812 5.91351563 4.44140625 6.73828125 C5 9 5 9 4 12 C2.02 8.7 0.04 5.4 -2 2 C-1.34 1.34 -0.68 0.68 0 0 Z " fill="#E4C834" transform="translate(190,327)"/>
<path d="M0 0 C0.66 0.33 1.32 0.66 2 1 C2 1.66 2 2.32 2 3 C3.32 3 4.64 3 6 3 C6 4.32 6 5.64 6 7 C2.73045798 6.43628586 1.17424117 5.50037734 -1 3 C-0.67 2.01 -0.34 1.02 0 0 Z " fill="#DEC532" transform="translate(318,573)"/>
<path d="M0 0 C0.99 0.33 1.98 0.66 3 1 C3 1.99 3 2.98 3 4 C3.66 4 4.32 4 5 4 C5 5.98 5 7.96 5 10 C4.67 8.68 4.34 7.36 4 6 C2.68 6 1.36 6 0 6 C0 4.02 0 2.04 0 0 Z " fill="#EED736" transform="translate(348,544)"/>
<path d="M0 0 C2.64 0.33 5.28 0.66 8 1 C7.01 1.495 7.01 1.495 6 2 C5.67 2.99 5.34 3.98 5 5 C2.83125748 4.49396008 1.00032373 4.00016187 -1 3 C-0.67 2.01 -0.34 1.02 0 0 Z " fill="#EED433" transform="translate(179,523)"/>
<path d="M0 0 C0.99 0.33 1.98 0.66 3 1 C2.7452486 2.31571603 2.47065859 3.62760376 2.1875 4.9375 C2.03667969 5.66839844 1.88585937 6.39929688 1.73046875 7.15234375 C1.48941406 7.76207031 1.24835938 8.37179687 1 9 C0.01 9.33 -0.98 9.66 -2 10 C-1.34 8.35 -0.68 6.7 0 5 C-0.66 4.67 -1.32 4.34 -2 4 C-1.34 2.68 -0.68 1.36 0 0 Z " fill="#C8B436" transform="translate(219,513)"/>
<path d="M0 0 C1.32 0.33 2.64 0.66 4 1 C4 1.66 4 2.32 4 3 C-1.47619048 8 -1.47619048 8 -4 8 C-3.67 6.68 -3.34 5.36 -3 4 C-2.34 4 -1.68 4 -1 4 C-0.67 2.68 -0.34 1.36 0 0 Z " fill="#C9B22C" transform="translate(211,501)"/>
<path d="M0 0 C0.66 0 1.32 0 2 0 C2 0.66 2 1.32 2 2 C2.99 2 3.98 2 5 2 C5 4.97 5 7.94 5 11 C4.34 11 3.68 11 3 11 C3 8.69 3 6.38 3 4 C1.35 4 -0.3 4 -2 4 C-1.34 2.68 -0.68 1.36 0 0 Z " fill="#D7BC2E" transform="translate(218,498)"/>
<path d="M0 0 C1.98 0 3.96 0 6 0 C5.34 1.98 4.68 3.96 4 6 C2.68 5.34 1.36 4.68 0 4 C0 2.68 0 1.36 0 0 Z " fill="#E6CB2A" transform="translate(212,497)"/>
<path d="M0 0 C0 0.66 0 1.32 0 2 C-0.66 2 -1.32 2 -2 2 C-2.33 2.99 -2.66 3.98 -3 5 C-3.66 4.01 -4.32 3.02 -5 2 C-6.98 2.66 -8.96 3.32 -11 4 C-6.99509003 -0.13840697 -5.70470474 -1.35111428 0 0 Z " fill="#E3C942" transform="translate(330,472)"/>
<path d="M0 0 C2.125 0.375 2.125 0.375 4 1 C4 1.66 4 2.32 4 3 C6.97 3.495 6.97 3.495 10 4 C8.265625 5.1171875 8.265625 5.1171875 6 6 C3.859375 5.3203125 3.859375 5.3203125 1.75 4.125 C1.04359375 3.73570312 0.3371875 3.34640625 -0.390625 2.9453125 C-0.92171875 2.63335937 -1.4528125 2.32140625 -2 2 C-1.34 1.34 -0.68 0.68 0 0 Z " fill="#C1AD2E" transform="translate(148,388)"/>
<path d="M0 0 C0.66 0.66 1.32 1.32 2 2 C2.99 1.34 3.98 0.68 5 0 C5.1875 2.875 5.1875 2.875 5 6 C4.01 6.66 3.02 7.32 2 8 C-0.1519437 4.77208445 -0.20086443 3.71599191 0 0 Z " fill="#F1D238" transform="translate(297,521)"/>
<path d="M0 0 C1.6254308 0.14095064 3.25034051 0.28792087 4.875 0.4375 C5.77992188 0.51871094 6.68484375 0.59992188 7.6171875 0.68359375 C10 1 10 1 12 2 C12 2.66 12 3.32 12 4 C3.96428571 3.33035714 3.96428571 3.33035714 0 0 Z " fill="#D5CB59" transform="translate(260,466)"/>
<path d="M0 0 C0.99 0.33 1.98 0.66 3 1 C-0.44615385 5.8 -0.44615385 5.8 -3.25 6.8125 C-4.11625 6.9053125 -4.11625 6.9053125 -5 7 C-5 6.34 -5 5.68 -5 5 C-4.34 5 -3.68 5 -3 5 C-2.87625 4.360625 -2.7525 3.72125 -2.625 3.0625 C-2.41875 2.381875 -2.2125 1.70125 -2 1 C-1.34 0.67 -0.68 0.34 0 0 Z " fill="#E6DC58" transform="translate(319,451)"/>
<path d="M0 0 C1.65 0.33 3.3 0.66 5 1 C3.68 2.65 2.36 4.3 1 6 C0.01 5.67 -0.98 5.34 -2 5 C-1.34 3.35 -0.68 1.7 0 0 Z " fill="#E0C42C" transform="translate(189,360)"/>
<path d="M0 0 C3.96 0 7.92 0 12 0 C11.01 0.33 10.02 0.66 9 1 C9 1.66 9 2.32 9 3 C5.26512223 2.5020163 3.18762365 2.12508244 0 0 Z M1 2 C3 3 3 3 3 3 Z " fill="#F9E143" transform="translate(137,345)"/>
<path d="M0 0 C0.66 0 1.32 0 2 0 C2 0.66 2 1.32 2 2 C3.32 2.33 4.64 2.66 6 3 C3.69 4.32 1.38 5.64 -1 7 C-1.33 5.68 -1.66 4.36 -2 3 C-1.34 3 -0.68 3 0 3 C0 2.01 0 1.02 0 0 Z " fill="#C5AD2D" transform="translate(236,576)"/>
<path d="M0 0 C1.1484375 1.703125 1.1484375 1.703125 2 4 C1.1015625 6.359375 1.1015625 6.359375 -0.375 8.75 C-0.85710937 9.54921875 -1.33921875 10.3484375 -1.8359375 11.171875 C-2.22007812 11.77515625 -2.60421875 12.3784375 -3 13 C-4.04449911 9.86650268 -3.93423645 9.01031744 -3 6 C-2.34 6 -1.68 6 -1 6 C-0.67 4.02 -0.34 2.04 0 0 Z " fill="#D4BC30" transform="translate(249,562)"/>
<path d="M0 0 C0.66 0 1.32 0 2 0 C1.67 1.98 1.34 3.96 1 6 C-0.65 6.33 -2.3 6.66 -4 7 C-4 5.35 -4 3.7 -4 2 C-1 3 -1 3 0 4 C0 2.68 0 1.36 0 0 Z " fill="#EAD03D" transform="translate(260,528)"/>
<path d="M0 0 C0.66 0.33 1.32 0.66 2 1 C1.01 2.485 1.01 2.485 0 4 C0.99 3.67 1.98 3.34 3 3 C3 3.66 3 4.32 3 5 C0.69 5 -1.62 5 -4 5 C-4 5.66 -4 6.32 -4 7 C-4.66 6.67 -5.32 6.34 -6 6 C-4 4 -2 2 0 0 Z " fill="#EBD13C" transform="translate(163,485)"/>
<path d="M0 0 C2.97 0.99 5.94 1.98 9 3 C9 3.33 9 3.66 9 4 C4.545 4.495 4.545 4.495 0 5 C0 3.35 0 1.7 0 0 Z " fill="#28424A" transform="translate(258,466)"/>
<path d="M0 0 C1.32 0.66 2.64 1.32 4 2 C3.34 2.66 2.68 3.32 2 4 C2.32041397 6.60280568 2.32041397 6.60280568 3 9 C2.34 9 1.68 9 1 9 C0.87625 8.360625 0.7525 7.72125 0.625 7.0625 C0.315625 6.0415625 0.315625 6.0415625 0 5 C-0.66 4.67 -1.32 4.34 -2 4 C-1.34 2.68 -0.68 1.36 0 0 Z " fill="#C0AD25" transform="translate(366,458)"/>
<path d="M0 0 C2.64 0 5.28 0 8 0 C7.01 0.33 6.02 0.66 5 1 C5 1.66 5 2.32 5 3 C3.02 3.99 3.02 3.99 1 5 C1 4.34 1 3.68 1 3 C0.34 3 -0.32 3 -1 3 C-0.67 2.01 -0.34 1.02 0 0 Z " fill="#2B423D" transform="translate(339,427)"/>
<path d="M0 0 C0.66 0 1.32 0 2 0 C2 1.98 2 3.96 2 6 C4.64 6 7.28 6 10 6 C10 6.33 10 6.66 10 7 C6.7 7.33 3.4 7.66 0 8 C0 5.36 0 2.72 0 0 Z " fill="#D8C83F" transform="translate(210,420)"/>
<path d="M0 0 C0.33 0 0.66 0 1 0 C1.33 1.65 1.66 3.3 2 5 C2.99 5.33 3.98 5.66 5 6 C5 6.99 5 7.98 5 9 C2.5625 8.3125 2.5625 8.3125 0 7 C-0.875 4.5 -0.875 4.5 -1 2 C-0.67 1.34 -0.34 0.68 0 0 Z " fill="#CFBA30" transform="translate(143,524)"/>
<path d="M0 0 C2 1.3125 2 1.3125 4 3 C4 3.99 4 4.98 4 6 C3.34 6 2.68 6 2 6 C2 6.66 2 7.32 2 8 C1.34 8 0.68 8 0 8 C0 5.36 0 2.72 0 0 Z " fill="#DDC930" transform="translate(234,470)"/>
<path d="M0 0 C1.4540625 0.0309375 1.4540625 0.0309375 2.9375 0.0625 C-1.8125 4.9375 -1.8125 4.9375 -4.0625 6.0625 C-4.105221 4.39638095 -4.10313832 2.72867115 -4.0625 1.0625 C-3.0625 0.0625 -3.0625 0.0625 0 0 Z " fill="#293F4F" transform="translate(328.0625,465.9375)"/>
<path d="M0 0 C2.91517292 1.07401108 4.77810176 1.77810176 7 4 C4.03 4 1.06 4 -2 4 C-2 3.34 -2 2.68 -2 2 C-1.34 2 -0.68 2 0 2 C0 1.34 0 0.68 0 0 Z " fill="#2C424F" transform="translate(250,462)"/>
<path d="M0 0 C0.66 0 1.32 0 2 0 C1.855625 0.804375 1.71125 1.60875 1.5625 2.4375 C0.90311661 6.61359481 0.43908647 10.79598059 0 15 C-0.33 15 -0.66 15 -1 15 C-1.02693575 12.87506859 -1.04636628 10.75004088 -1.0625 8.625 C-1.07410156 7.44164062 -1.08570312 6.25828125 -1.09765625 5.0390625 C-1 2 -1 2 0 0 Z " fill="#F9DF4C" transform="translate(112,430)"/>
<path d="M0 0 C1.43836751 0.11458693 2.87570966 0.24209116 4.3125 0.375 C5.51326172 0.47941406 5.51326172 0.47941406 6.73828125 0.5859375 C9 1 9 1 12 3 C11.34 3 10.68 3 10 3 C9.67 3.66 9.34 4.32 9 5 C4.545 3.02 4.545 3.02 0 1 C0 0.67 0 0.34 0 0 Z " fill="#C2AC28" transform="translate(177,403)"/>
<path d="M0 0 C1.98 0.495 1.98 0.495 4 1 C4 2.98 4 4.96 4 7 C3.34 7 2.68 7 2 7 C2 5.68 2 4.36 2 3 C1.34 3 0.68 3 0 3 C-0.33 3.66 -0.66 4.32 -1 5 C-0.67 3.35 -0.34 1.7 0 0 Z " fill="#F0D43E" transform="translate(328,311)"/>
<path d="M0 0 C1.65 0 3.3 0 5 0 C5.33 0.99 5.66 1.98 6 3 C4.68 3.33 3.36 3.66 2 4 C2 4.66 2 5.32 2 6 C1.34 6 0.68 6 0 6 C0 4.02 0 2.04 0 0 Z " fill="#DDBE23" transform="translate(374,294)"/>
<path d="M0 0 C2.91517292 1.07401108 4.77810176 1.77810176 7 4 C4.6875 4.625 4.6875 4.625 2 5 C1.01 4.34 0.02 3.68 -1 3 C-0.67 2.01 -0.34 1.02 0 0 Z " fill="#DEC22C" transform="translate(209,287)"/>
<path d="M0 0 C0.99 0 1.98 0 3 0 C3.33 1.65 3.66 3.3 4 5 C4.66 5 5.32 5 6 5 C6 5.66 6 6.32 6 7 C2.34683329 5.75023244 1.21934164 5.32901247 -1 2 C-0.67 1.34 -0.34 0.68 0 0 Z " fill="#D0BA2F" transform="translate(209,576)"/>
<path d="M0 0 C0 1.32 0 2.64 0 4 C-0.66 4 -1.32 4 -2 4 C-2 3.34 -2 2.68 -2 2 C-3.98 2.99 -3.98 2.99 -6 4 C-6 3.34 -6 2.68 -6 2 C-6.66 1.67 -7.32 1.34 -8 1 C-5.29120665 -0.35439668 -2.99066732 -0.06501451 0 0 Z " fill="#D8BE25" transform="translate(360,508)"/>
<path d="M0 0 C1.65 0 3.3 0 5 0 C5.33 0.99 5.66 1.98 6 3 C4.68 3 3.36 3 2 3 C2 3.66 2 4.32 2 5 C1.34 5 0.68 5 0 5 C0 3.35 0 1.7 0 0 Z " fill="#E7D22F" transform="translate(336,498)"/>
<path d="M0 0 C1.98 0 3.96 0 6 0 C6 1.32 6 2.64 6 4 C6.66 4 7.32 4 8 4 C8 4.66 8 5.32 8 6 C4.63408134 4.55746343 2.48952921 2.66735273 0 0 Z " fill="#DCC93B" transform="translate(240,454)"/>
<path d="M0 0 C1.32 0 2.64 0 4 0 C3.67 1.98 3.34 3.96 3 6 C2.01 6 1.02 6 0 6 C0 4.02 0 2.04 0 0 Z " fill="#183F75" transform="translate(212,438)"/>
<path d="M0 0 C-0.93972656 0.41572266 -0.93972656 0.41572266 -1.8984375 0.83984375 C-2.71570313 1.20207031 -3.53296875 1.56429688 -4.375 1.9375 C-5.18710937 2.29714844 -5.99921875 2.65679687 -6.8359375 3.02734375 C-8.23683785 3.6569903 -9.62625284 4.31312642 -11 5 C-10.375 2.5625 -10.375 2.5625 -9 0 C-5.40643641 -1.0704232 -3.5731613 -1.19105377 0 0 Z " fill="#9D8920" transform="translate(383,405)"/>
<path d="M0 0 C2.64 0 5.28 0 8 0 C6.25 2 6.25 2 4 4 C2.68 4 1.36 4 0 4 C0 2.68 0 1.36 0 0 Z " fill="#E4C42E" transform="translate(282,268)"/>
<path d="M0 0 C2 3 2 3 2 5 C2.66 5 3.32 5 4 5 C4 6.65 4 8.3 4 10 C3.34 10 2.68 10 2 10 C0.39644899 6.49223216 -0.22036864 3.85645121 0 0 Z " fill="#F1D839" transform="translate(306,549)"/>
<path d="M0 0 C1.32 0.33 2.64 0.66 4 1 C3.67 1.99 3.34 2.98 3 4 C0.4375 5.1875 0.4375 5.1875 -2 6 C-1.34 4.02 -0.68 2.04 0 0 Z " fill="#CFB62D" transform="translate(165,483)"/>
<path d="M0 0 C0.66 0 1.32 0 2 0 C2 1.32 2 2.64 2 4 C1.34 4 0.68 4 0 4 C0 4.66 0 5.32 0 6 C-0.66 6 -1.32 6 -2 6 C-2 5.34 -2 4.68 -2 4 C-2.66 4 -3.32 4 -4 4 C-4 3.34 -4 2.68 -4 2 C-2.68 2 -1.36 2 0 2 C0 1.34 0 0.68 0 0 Z " fill="#18356C" transform="translate(336,440)"/>
<path d="M0 0 C0.99 0.33 1.98 0.66 3 1 C3 1.66 3 2.32 3 3 C3.66 3 4.32 3 5 3 C4.67 4.32 4.34 5.64 4 7 C3.01 6.67 2.02 6.34 1 6 C0.67 4.02 0.34 2.04 0 0 Z " fill="#EBD134" transform="translate(185,320)"/>
<path d="M0 0 C2.375 0.25 2.375 0.25 5 1 C6.3125 3.0625 6.3125 3.0625 7 5 C5.68 5.33 4.36 5.66 3 6 C2.814375 5.071875 2.814375 5.071875 2.625 4.125 C2.12802644 1.80879168 2.12802644 1.80879168 0 0 Z " fill="#CDB832" transform="translate(369,286)"/>
<path d="M0 0 C0.99 0 1.98 0 3 0 C3 0.99 3 1.98 3 3 C3.66 3.33 4.32 3.66 5 4 C2.03 4 -0.94 4 -4 4 C-4 3.34 -4 2.68 -4 2 C-2.68 2 -1.36 2 0 2 C0 1.34 0 0.68 0 0 Z " fill="#F1D738" transform="translate(331,580)"/>
<path d="M0 0 C1.32 0 2.64 0 4 0 C4 0.66 4 1.32 4 2 C4.99 2 5.98 2 7 2 C7.33 3.32 7.66 4.64 8 6 C4.63408134 4.55746343 2.48952921 2.66735273 0 0 Z " fill="#D7BE35" transform="translate(363,518)"/>
<path d="M0 0 C1.32 0 2.64 0 4 0 C4 0.66 4 1.32 4 2 C3.34 2 2.68 2 2 2 C2 2.66 2 3.32 2 4 C0.02 4.99 0.02 4.99 -2 6 C-2.66 5.34 -3.32 4.68 -4 4 C-2.68 3.67 -1.36 3.34 0 3 C0 2.01 0 1.02 0 0 Z " fill="#E4C62B" transform="translate(364,512)"/>
<path d="M0 0 C0.33 1.32 0.66 2.64 1 4 C0.34 4 -0.32 4 -1 4 C-1 4.66 -1 5.32 -1 6 C-2.65 6 -4.3 6 -6 6 C-4 4 -2 2 0 0 Z " fill="#DDCD39" transform="translate(333,464)"/>
<path d="M0 0 C4 4.625 4 4.625 4 8 C2.68 7.67 1.36 7.34 0 7 C0 4.69 0 2.38 0 0 Z " fill="#DAC641" transform="translate(210,443)"/>
<path d="M0 0 C2.97 0.495 2.97 0.495 6 1 C5.34 2.65 4.68 4.3 4 6 C2.68 5.34 1.36 4.68 0 4 C0 2.68 0 1.36 0 0 Z " fill="#CBB31C" transform="translate(344,358)"/>
<path d="M0 0 C1.36125 0.37125 1.36125 0.37125 2.75 0.75 C-0.25617269 3.75617269 -3.07381598 3.34585316 -7.25 3.75 C-4.05 -0.31153846 -4.05 -0.31153846 0 0 Z " fill="#DBC827" transform="translate(137.25,345.25)"/>
<path d="M0 0 C1.32 0.99 2.64 1.98 4 3 C3.67 3.99 3.34 4.98 3 6 C1.68 6 0.36 6 -1 6 C-0.67 4.02 -0.34 2.04 0 0 Z " fill="#D9C32E" transform="translate(249,338)"/>
<path d="M0 0 C0.66 0 1.32 0 2 0 C2.33 1.98 2.66 3.96 3 6 C1.68 6.33 0.36 6.66 -1 7 C-0.67 4.69 -0.34 2.38 0 0 Z " fill="#E8CC37" transform="translate(210,535)"/>
<path d="M0 0 C0.28875 0.639375 0.5775 1.27875 0.875 1.9375 C1.82823451 4.15206079 1.82823451 4.15206079 4 5 C3.67 6.98 3.34 8.96 3 11 C0.81024227 7.71536341 0.00193437 4.79303725 -1 1 C-0.67 0.67 -0.34 0.34 0 0 Z " fill="#C8AE23" transform="translate(298,525)"/>
<path d="M0 0 C0.66 0 1.32 0 2 0 C1.34 2.64 0.68 5.28 0 8 C-0.66 8 -1.32 8 -2 8 C-2 6.02 -2 4.04 -2 2 C-1.34 2 -0.68 2 0 2 C0 1.34 0 0.68 0 0 Z " fill="#E0C82F" transform="translate(418,520)"/>
<path d="M0 0 C-2.31 1.65 -4.62 3.3 -7 5 C-7 3.33333333 -7 1.66666667 -7 0 C-4 -1 -4 -1 0 0 Z " fill="#B9A525" transform="translate(193,522)"/>
<path d="M0 0 C0.66 0 1.32 0 2 0 C2.33 2.31 2.66 4.62 3 7 C2.67 6.34 2.34 5.68 2 5 C0.68 5 -0.64 5 -2 5 C-2 4.34 -2 3.68 -2 3 C-1.34 3 -0.68 3 0 3 C0 2.01 0 1.02 0 0 Z " fill="#E6C938" transform="translate(340,519)"/>
<path d="M0 0 C0.66 0.33 1.32 0.66 2 1 C1.67 2.65 1.34 4.3 1 6 C-0.32 6 -1.64 6 -3 6 C-3 4.68 -3 3.36 -3 2 C-2.01 1.34 -1.02 0.68 0 0 Z " fill="#D4BA2A" transform="translate(185,470)"/>
<path d="M0 0 C2.475 0.495 2.475 0.495 5 1 C5 1.66 5 2.32 5 3 C5.66 3 6.32 3 7 3 C7 3.99 7 4.98 7 6 C3.63279613 4.60667426 2.0140476 3.0210714 0 0 Z " fill="#D2BF31" transform="translate(113,451)"/>
<path d="M0 0 C0 2.83967231 -0.40267181 5.23735711 -1 8 C-2.32 8 -3.64 8 -5 8 C-5 5 -5 5 -2.5 2.3125 C-1.675 1.549375 -0.85 0.78625 0 0 Z " fill="#374855" transform="translate(327,445)"/>
<path d="M0 0 C0.66 0 1.32 0 2 0 C2 2.31 2 4.62 2 7 C1.34 7 0.68 7 0 7 C0 6.34 0 5.68 0 5 C-0.66 4.67 -1.32 4.34 -2 4 C-1.34 2.68 -0.68 1.36 0 0 Z " fill="#E1CF2C" transform="translate(268,267)"/>
<path d="M0 0 C0.99 0.33 1.98 0.66 3 1 C2.67 2.98 2.34 4.96 2 7 C1.34 7 0.68 7 0 7 C0 4.69 0 2.38 0 0 Z " fill="#D0BC44" transform="translate(254,544)"/>
<path d="M0 0 C-2.64 0.99 -5.28 1.98 -8 3 C-8.66 2.34 -9.32 1.68 -10 1 C-5.8922935 -0.58706842 -4.40767604 -1.10191901 0 0 Z " fill="#D0B938" transform="translate(176,532)"/>
<path d="M0 0 C1.65 0 3.3 0 5 0 C5 0.66 5 1.32 5 2 C6.32 2.33 7.64 2.66 9 3 C2.25 3.125 2.25 3.125 0 2 C0 1.34 0 0.68 0 0 Z " fill="#F0D23F" transform="translate(383,530)"/>
<path d="M0 0 C1.42944945 2.35438733 2.08661261 3.48032433 1.625 6.25 C1.41875 6.8275 1.2125 7.405 1 8 C0.01 8 -0.98 8 -2 8 C-2 6.68 -2 5.36 -2 4 C-1.34 4 -0.68 4 0 4 C0 2.68 0 1.36 0 0 Z " fill="#D4C141" transform="translate(262,520)"/>
<path d="M0 0 C0.763125 0.20625 1.52625 0.4125 2.3125 0.625 C2.3125 1.285 2.3125 1.945 2.3125 2.625 C-0.29332371 3.55565133 -1.32948224 3.77417407 -3.9375 2.6875 C-4.515 2.336875 -5.0925 1.98625 -5.6875 1.625 C-2.6875 -0.375 -2.6875 -0.375 0 0 Z " fill="#DECB3C" transform="translate(253.6875,459.375)"/>
<path d="M0 0 C2.375 0.3125 2.375 0.3125 5 1 C5.66 1.99 6.32 2.98 7 4 C6.01 4.33 5.02 4.66 4 5 C4 4.34 4 3.68 4 3 C3.01 3 2.02 3 1 3 C0.67 2.01 0.34 1.02 0 0 Z " fill="#D7C134" transform="translate(440,427)"/>
<path d="M0 0 C5.94 0.99 5.94 0.99 12 2 C12 2.33 12 2.66 12 3 C8.04 3 4.08 3 0 3 C0 2.01 0 1.02 0 0 Z " fill="#EBCE31" transform="translate(372,417)"/>
<path d="M0 0 C2 3 2 3 2 6 C3.32 6.33 4.64 6.66 6 7 C4.02 7.33 2.04 7.66 0 8 C0 5.36 0 2.72 0 0 Z " fill="#AC992A" transform="translate(302,336)"/>
<path d="M0 0 C0.66 0 1.32 0 2 0 C0.125 3.875 0.125 3.875 -1 5 C-2.99958364 5.04080783 -5.00045254 5.04254356 -7 5 C-6.401875 4.731875 -5.80375 4.46375 -5.1875 4.1875 C-2.95672092 3.1106021 -2.95672092 3.1106021 -1.375 1.375 C-0.694375 0.694375 -0.694375 0.694375 0 0 Z " fill="#FAE044" transform="translate(311,339)"/>
<path d="M0 0 C4 4.625 4 4.625 4 8 C2.68 7.34 1.36 6.68 0 6 C0 4.02 0 2.04 0 0 Z " fill="#E5D03E" transform="translate(244,332)"/>
<path d="M0 0 C0 0.99 0 1.98 0 3 C0.99 3.66 1.98 4.32 3 5 C1.35 5.33 -0.3 5.66 -2 6 C-2 2 -2 2 0 0 Z " fill="#B8A01D" transform="translate(186,288)"/>
</svg>
